<?xml version="1.0" encoding="UTF-8"?>
<svg width="500px" height="500px" viewBox="0 0 500 500" version="1.1" xmlns="http://www.w3.org/2000/svg" xmlns:xlink="http://www.w3.org/1999/xlink">
    <title>Lume</title>
    <g id="Lume" stroke="none" stroke-width="1" fill="none" fill-rule="evenodd">
        <path d="M247.170389,-0.321 C302.445073,42.1655166 371.580643,67.4836067 446.68568,67.4836067 C447.897452,67.4836067 449.089359,67.4091125 450.306097,67.39918 C489.519836,292.982469 407.745086,455.255635 250.021033,499.679 C92.262215,455.255635 10.4824993,293.017233 49.6912717,67.4488428 C124.021569,67.0167765 192.392332,41.7731805 247.170389,-0.321 Z M353.38519,197.379116 C332.442392,197.379116 311.519458,207.634482 311.519458,231.030622 C311.519458,268.992859 363.431972,255.454782 363.431972,271.456133 C363.431972,276.794883 356.449384,278.642339 349.476728,278.642339 C340.249382,278.642339 333.475378,274.74381 327.724427,267.766188 L327.724427,267.766188 L309.051218,288.485504 C318.904315,298.547185 334.294814,302.028547 348.250058,302.028547 C369.585192,302.028547 394.217936,294.648656 394.217936,269.196476 C394.217936,231.23424 342.300455,243.754229 342.295489,228.984516 C342.295489,223.024981 348.453675,220.775256 353.583841,220.775256 C360.973664,220.775256 366.923266,223.645766 371.437614,229.188133 L371.437614,229.188133 L390.324373,210.509958 C381.082128,200.661827 366.520998,197.379116 353.38519,197.379116 Z M155.360776,198.519374 C139.37929,198.519374 123.199153,203.778663 112.069722,214.302208 L112.069722,214.302208 L128.254825,230.88958 C134.730853,223.604049 143.019573,219.164196 152.937232,219.164196 C163.45581,219.164196 172.355382,226.042492 172.355382,236.759722 C147.072056,236.759722 105.792345,237.370574 105.792345,271.354821 C105.792345,291.180207 122.384683,301.698786 140.79468,301.698786 C153.140849,301.698786 165.278435,297.457583 171.95808,286.929072 L171.95808,286.929072 L172.355382,286.929072 L172.355382,299.275242 L200.280769,299.275242 L200.280769,249.304543 C200.280769,216.532068 190.775311,198.519374 155.360776,198.519374 Z M267.439263,198.518877 C252.669549,198.518877 242.756856,206.623845 238.714305,214.301712 L238.714305,214.301712 L238.302104,214.301712 L238.302104,200.952354 L209.169912,200.952354 L209.169912,299.274745 L239.513876,299.274745 L239.514617,249.930029 L239.514617,249.930029 L239.520741,249.166697 C239.671895,236.839364 242.420689,225.227526 257.725221,225.227526 C271.902309,225.227526 273.346862,237.28971 273.492047,248.00116 L273.499859,248.705309 C273.507058,249.524202 273.508056,250.333357 273.508056,251.12667 L273.508056,299.274745 L303.856987,299.274745 L303.856987,245.052911 C303.856987,218.751498 298.200395,198.518877 267.439263,198.518877 Z M172.355382,256.177873 L172.355382,262.6539 C172.355382,274.796452 161.225951,281.068863 149.291983,281.068863 C142.62227,281.068863 134.929504,277.627232 134.929504,270.346667 C134.929504,256.992342 155.569359,256.177873 164.8712,256.177873 L164.8712,256.177873 L172.355382,256.177873 Z" id="Combined-Shape" fill="#000000"></path>
    </g>
</svg>