<?xml version="1.0" encoding="UTF-8"?>
<svg width="500px" height="500px" viewBox="0 0 500 500" version="1.1" xmlns="http://www.w3.org/2000/svg" xmlns:xlink="http://www.w3.org/1999/xlink">
    <title>Lume</title>
    <g id="Lume" stroke="none" stroke-width="1" fill="none" fill-rule="evenodd">
        <path d="M109.822412,249.264722 L390.177588,359.685412 C390.177588,437.10269 327.417278,499.863 250,499.863 C172.582722,499.863 109.822412,437.10269 109.822412,359.685412 L109.822412,359.685412 L109.822412,249.264722 Z M188.10767,360.938039 C162.98336,360.938039 146.232699,379.165611 146.232699,405.153414 C146.232699,429.16976 159.657227,445.798186 184.41371,445.798186 C202.273456,446.043778 217.915032,436.06874 213.357578,422.64197 C208.92236,431.263453 197.099221,435.820906 189.832415,435.820906 C172.836163,435.820906 164.706984,419.318079 164.706984,399.856944 C164.706984,384.21649 171.35813,369.559521 186.629637,369.559521 C196.113492,369.559521 202.148978,379.413445 202.148978,382.615101 L202.148978,382.615101 L204.489384,384.462081 C210.401513,381.874963 213.726526,374.116975 213.726526,371.775448 C210.770461,365.741084 199.809695,360.938039 188.10767,360.938039 Z M318.64889,360.938039 C293.52458,360.938039 276.772798,379.165611 276.772798,405.153414 C276.772798,429.16976 290.197325,445.798186 314.585983,445.798186 C324.439906,445.798186 334.90949,443.334425 340.573786,442.22534 C342.789713,441.733036 344.513337,441.487445 346.36256,441.487445 L346.36256,441.487445 L346.363373,440.738915 C346.363455,440.691688 346.363544,440.642501 346.363643,440.591435 L346.364347,440.26312 C346.369846,437.932536 346.392267,432.85113 346.483673,430.155489 C346.617122,424.650866 346.71448,421.71717 346.852606,418.893673 L346.882857,418.289428 L346.882857,418.289428 L346.914523,417.683175 C347.022625,415.653011 347.15713,413.499717 347.346046,410.326528 C344.021033,408.725139 341.189446,408.725139 338.356737,408.725139 C332.690199,408.725139 327.887154,410.448763 327.887154,410.448763 L327.887154,410.448763 L326.901425,413.158115 C327.038131,413.32437 327.174082,413.48674 327.308536,413.649475 L327.548776,413.943708 C329.005073,415.755425 330.226437,417.919739 330.226437,426.092582 L330.226437,426.092582 L330.226437,435.450838 C330.226437,435.450838 323.822004,436.806635 320.373635,436.806635 C303.377383,436.806635 295.248204,419.318079 295.248204,399.856944 C295.248204,384.21649 301.898229,369.559521 317.170857,369.559521 C326.655834,369.559521 332.690199,379.413445 332.690199,382.615101 L332.690199,382.615101 L335.029482,384.462081 C340.941612,381.874963 344.268867,374.116975 344.268867,371.775448 C341.311681,365.741084 330.348672,360.938039 318.64889,360.938039 Z M266.558898,362.046002 L243.894986,362.413828 L223.32813,362.413828 L222.342401,365.000946 C224.433851,367.958132 225.051754,368.573792 225.297345,378.795542 L225.297345,378.795542 L225.297345,435.206368 C225.297345,435.206368 225.325304,436.276256 225.327735,437.864477 L225.327725,438.310065 C225.325555,439.682896 225.303041,441.369145 225.230888,443.066719 L225.204958,443.632582 C225.195675,443.821067 225.185739,444.009277 225.17511,444.196798 L225.17511,444.196798 L256.707217,444.196798 C265.819882,444.196798 270.622927,442.595409 270.622927,436.190975 C270.622927,434.960777 270.497328,433.852813 270.252858,432.125825 C268.651469,434.220639 265.819882,434.712943 264.095137,434.712943 L264.095137,434.712943 L242.541431,434.712943 C242.541431,434.712943 242.192917,424.535554 242.154914,413.68404 L242.151964,412.445396 L242.151964,412.445396 L242.151918,411.204041 L242.151918,411.204041 L242.153606,410.376508 C242.154007,410.238652 242.154468,410.100843 242.154991,409.963099 L242.158879,409.137575 C242.161981,408.587955 242.166113,408.039999 242.171362,407.494941 C245.988678,407.494941 250.301662,407.73941 254.734638,407.73941 C260.769003,407.73941 265.942117,406.139143 265.942117,400.104778 C265.942117,398.871216 265.819882,397.517661 265.573169,395.916272 C263.354999,398.133321 260.400056,398.133321 257.689582,398.133321 L242.293597,398.133321 C242.293597,390.373089 242.663666,376.456258 243.032613,369.92959 L243.032613,369.92959 L253.871144,370.421894 C258.675311,370.667485 264.586319,373.253481 265.325335,376.948562 L265.325335,376.948562 L268.160287,376.948562 C269.882789,372.023282 269.390485,366.234509 266.558898,362.046002 L266.558898,362.046002 Z M365.871916,-0.137 C367.676282,8.28374808 368.867231,27.8211396 357.739373,33.8050405 C327.141409,50.2495537 320.899581,68.4031121 320.899581,68.4031121 C320.899581,68.4031121 322.70258,66.2746146 325.533843,63.4273508 L325.989317,62.9720153 C328.230983,60.7443434 331.047772,58.1412675 334.095339,55.789372 C344.121961,48.0437192 356.634773,41.597793 360.042771,41.046054 C365.924623,40.0894821 371.141472,42.7461278 372.512969,48.8343208 C375.343435,61.4491823 372.117108,72.7418888 363.797288,80.3742781 C352.842129,90.4210862 329.211552,92.3207729 329.211552,92.3207729 C338.311881,93.5599428 348.087305,104.288575 343.027455,119.260663 C337.365401,135.998988 325.240601,151.296288 307.20367,166.123712 C306.748373,161.237682 305.841144,156.423423 304.715238,153.047947 L304.715238,153.047947 L302.003642,144.908675 L297.835322,152.404251 C291.209968,164.326075 265.67634,176.266963 251.125906,174.125049 C252.443009,171.966567 254.087331,168.949731 255.742448,165.787056 L256.097165,165.107368 C259.821014,157.952654 263.485084,150.317288 263.485084,150.317288 C263.485084,150.317288 240.849207,165.362268 234.52103,180.1639 C248.751859,187.41837 272.218708,188.501663 297.40806,168.822972 C298.646943,175.136139 298.751428,186.900915 298.759829,189.247792 L298.760338,189.425542 C298.760391,189.451207 298.760431,189.474864 298.760461,189.496468 L298.760494,189.661212 L298.760494,189.661212 L298.829288,189.613638 C301.062237,188.063913 356.949534,148.864352 363.306105,103.222104 C367.041793,114.964791 368.947288,119.783959 371.421386,123.734377 L371.666659,124.120354 C371.749084,124.248222 371.832204,124.375369 371.916105,124.502009 L372.170234,124.880621 C372.213007,124.943541 372.255997,125.006387 372.299213,125.069186 L372.561316,125.445635 C373.886283,127.32721 375.434382,129.214729 377.490956,131.828424 C386.620442,143.453071 390.177588,198.649399 390.177588,198.649399 L390.177588,198.649399 L390.177588,315.798613 L109.822412,205.377923 L109.822412,198.649399 C125.592951,211.92702 157.54447,207.358352 168.338144,191.178494 C152.563119,184.530712 140.114228,166.688908 144.266849,156.727328 C154.965202,168.732137 172.679164,169.797487 184.097469,166.336782 C187.298004,165.370118 190.084735,164.080484 191.995635,162.545259 C198.89013,156.94937 220.62887,155.069868 229.337824,165.863543 L229.337824,165.863543 L229.338283,165.186566 C229.338513,165.073267 229.338858,164.959765 229.339376,164.846109 L229.34501,164.162729 C229.391007,160.512416 229.731382,156.805676 232.250153,154.651579 C231.831863,151.749342 233.89752,148.226959 232.250153,145.737405 C229.223439,141.199016 225.711149,134.211443 230.995283,133.081051 C236.80985,131.828424 242.829636,133.081051 245.940457,134.316857 C260.452762,140.125816 275.81959,119.37729 274.154281,103.611237 C270.428921,108.588102 259.419934,109.629901 254.0259,107.345568 C251.18422,106.145647 245.525531,106.931763 242.625537,108.384003 C240.152773,109.617863 236.248672,116.192234 235.18214,119.463971 C248.000444,121.780304 259.007506,121.918843 265.972395,119.990707 C264.340728,122.741552 262.359178,125.235592 259.927938,127.075843 C256.944958,129.336628 252.350498,131.605262 247.391575,129.629318 C244.848193,128.615554 241.018542,127.804767 236.889471,127.632068 L236.889471,127.632068 L234.209275,127.647768 C232.616858,127.715053 231.026683,127.792431 229.428659,128.1311 C226.834812,128.687325 224.913819,130.223671 224.008832,132.439599 C223.868655,132.770418 223.889962,133.179736 223.805855,133.53747 C193.392926,124.028943 170.203067,102.218432 160.231394,84.1512231 C181.939474,103.493762 211.145356,115.005142 234.516364,119.342997 C234.639001,119.725013 234.779618,120.086439 234.937077,120.423576 C234.979505,120.152802 235.063168,119.828935 235.18214,119.463971 C234.961136,119.424998 234.739015,119.384323 234.516364,119.342997 C233.336083,115.718824 233.646141,110.272554 235.156876,106.513473 C233.075519,104.022798 230.379623,98.8339844 230.379623,95.932869 C230.379623,93.0283894 226.697999,89.2850871 222.700134,84.5190491 C217.308344,78.0877013 217.096395,68.7552382 224.143403,67.9209012 C231.204989,67.0977784 237.640822,64.4030044 249.671424,63.7750088 C256.312477,22.2779571 347.605094,46.3447668 365.871916,-0.137 Z M300.450475,55.2791256 C294.540588,63.0673924 270.911132,71.6597178 266.074444,60.6597021 C258.550833,82.405171 286.220767,105.76885 300.450475,55.2791256 Z" id="Combined-Shape" fill="#231F20"></path>
    </g>
</svg>