<?xml version="1.0" encoding="UTF-8"?>
<svg width="500px" height="500px" viewBox="0 0 500 500" version="1.1" xmlns="http://www.w3.org/2000/svg" xmlns:xlink="http://www.w3.org/1999/xlink">
    <title>Lume</title>
    <g id="Lume" stroke="none" stroke-width="1" fill="none" fill-rule="evenodd">
        <path d="M164.285284,4.95967343 L164.755917,4.96000779 C169.407726,8.47862749 179.866492,11.5814504 194.166369,13.9064696 L196.053192,14.2052923 C198.279522,14.5487031 200.592822,14.873738 202.986162,15.1791211 L205.057038,15.4360357 L207.166148,15.6831465 L209.312523,15.920275 C210.394865,16.0363138 211.490818,16.1485424 212.599837,16.2568602 L214.835134,16.4682518 L217.104303,16.6690362 L219.406374,16.8590349 L221.740379,17.0380694 C222.131987,17.0669849 222.524886,17.0954361 222.919054,17.1234193 L225.299141,17.2856728 C226.89581,17.3900581 228.512152,17.4868364 230.146875,17.5757698 L232.612583,17.7032562 C233.025778,17.7235134 233.440082,17.7432729 233.855473,17.7625308 L236.36072,17.8720313 C238.039374,17.9409801 239.734794,18.0017864 241.445685,18.0542121 L244.023465,18.1265355 L246.623484,18.1861095 C247.05862,18.1949661 247.494642,18.203284 247.93153,18.2110596 L250.56309,18.2511748 C252.764448,18.2791307 254.986446,18.2933411 257.226561,18.2933411 C259.466197,18.2933411 261.68774,18.2791307 263.888665,18.2511748 L266.519717,18.2110596 C266.956522,18.203284 267.392462,18.1949661 267.827517,18.1861095 L270.42706,18.1265355 L273.004384,18.0542121 C274.714979,18.0017864 276.410115,17.9409801 278.088499,17.8720313 L280.593349,17.7625308 C281.008676,17.7432729 281.422916,17.7235134 281.836048,17.7032562 L284.301388,17.5757698 C285.935872,17.4868364 287.551987,17.3900581 289.14844,17.2856728 L291.528212,17.1234193 C291.922329,17.0954361 292.315177,17.0669849 292.706736,17.0380694 L295.040451,16.8590349 L297.342248,16.6690362 L299.611159,16.4682518 L301.846213,16.2568602 C302.955114,16.1485424 304.050955,16.0363138 305.13319,15.920275 L307.279358,15.6831465 L309.388275,15.4360357 L311.45897,15.1791211 C313.852107,14.873738 316.16523,14.5487031 318.391405,14.2052923 L320.278101,13.9064696 C334.266198,11.6319943 344.579267,8.61316525 349.376029,5.18888976 L349.687621,4.96000779 L350.163117,4.95967343 C351.087554,4.62849251 351.830265,4.6204977 352.371541,4.96000779 C353.028989,5.36688111 353.360237,6.26497953 353.388056,7.60394539 L353.388137,7.98001066 L353.373274,8.37771013 C353.369557,8.44578361 353.365222,8.51474905 353.360271,8.58460174 L353.323186,9.01432685 C353.315778,9.08770956 353.307758,9.16197005 353.299129,9.23710359 L353.240052,9.69834358 C353.228992,9.7769504 353.217326,9.8564208 353.205057,9.93675007 L353.124219,10.4289942 L353.029002,10.9416239 C353.01194,11.0287484 352.994283,11.1167128 352.976033,11.2055125 L352.85944,11.7482951 L352.728725,12.3108958 C352.705767,12.4063015 352.682226,12.5025235 352.658103,12.599557 L352.506396,13.1914593 L352.340824,13.8026123 L352.161489,14.4327888 L351.968493,15.0817619 L351.761939,15.7493047 L351.54193,16.43519 L351.308569,17.1391909 L351.061957,17.8610804 L350.802198,18.6006314 L350.388134,19.7425769 L349.945065,20.922984 L349.473338,22.1410865 L348.973301,23.3961184 L348.445298,24.6873135 L347.889678,26.0139056 L347.504091,26.917587 L346.903209,28.3014716 C346.834955,28.4571037 346.766207,28.6133535 346.696966,28.7702163 C365.033894,39.6592649 377.322416,59.6544722 377.322416,82.5061377 C377.322416,103.701129 366.777638,122.422655 350.64781,133.713208 C358.541942,139.70339 364.76197,148.621741 368.388795,159.448385 C374.073051,176.453705 373.209215,225.241228 372.782137,240.57561 L372.769336,241.029981 L372.520115,249.666454 L365.16809,254.190777 C359.421387,257.734911 353.335044,260.096163 347.12016,261.254261 C369.874265,284.734619 382.778995,319.402248 383.114875,362.022855 L383.121601,363.733073 L383.121601,388.866071 L196.934206,388.866071 C203.356444,419.366909 226.361476,439.170408 257.389514,439.170408 C282.819181,439.170408 300.203961,426.57998 313.419379,409.220161 L314.231544,408.140343 L314.633702,407.596001 L370.804323,448.784594 C345.134541,481.432569 302.87238,500.1625 261.137417,500.1625 C180.87861,500.1625 116.675399,446.656629 116.675399,363.733073 C116.675399,319.852138 134.65783,284.208869 163.476876,260.376175 C158.860802,259.133704 154.340549,257.214415 150.005764,254.628018 L149.285032,254.190777 L144.338951,251.14261 L142.498548,245.630988 C140.140532,238.55694 140.504778,176.069521 146.064328,159.448385 C149.684556,148.621346 155.907624,139.70274 163.801685,133.710635 C147.668896,122.421557 137.121122,103.700508 137.121122,82.5061377 C137.121122,59.6544722 149.409643,39.6592649 167.736986,28.7702163 L167.328771,27.8364329 L166.738653,26.4638365 L166.175497,25.1256157 L165.639664,23.8225365 L165.297797,22.9737185 L164.968339,22.1410865 L164.497653,20.922984 L164.199683,20.1318102 L163.914494,19.3576171 L163.510909,18.2286624 L163.136681,17.1391909 L162.903681,16.43519 L162.683995,15.7493047 L162.477728,15.0817619 L162.284988,14.4327888 L162.10588,13.8026123 L161.94051,13.1914593 L161.788986,12.599557 L161.651413,12.0271324 L161.527899,11.4744123 L161.418548,10.9416239 L161.323468,10.4289942 L161.242766,9.93675007 C161.230519,9.8564208 161.218876,9.7769504 161.207839,9.69834358 L161.148902,9.23710359 C161.140296,9.16197005 161.1323,9.08770956 161.124917,9.01432685 L161.087984,8.58460174 L161.065854,8.17617031 C161.00463,6.51904981 161.331663,5.42236383 162.081582,4.96000779 C162.620918,4.6204977 163.362081,4.62849251 164.285284,4.95967343 Z M253.64161,285.084618 C218.691503,285.084618 199.458695,308.67466 197.00347,333.551585 L196.934206,334.305802 L302.87238,334.305802 C303.399578,307.552867 282.532097,285.084618 253.64161,285.084618 Z M314.873338,144.964801 C296.670606,156.179754 288.599674,185.309876 296.862315,210.021115 C307.195409,240.914956 334.015442,254.593365 356.780839,240.579466 C356.780839,240.579466 358.496631,180.335038 353.215059,164.519078 C346.610697,144.753921 329.443192,135.983252 314.873338,144.964801 Z M199.579784,144.964801 C185.009931,135.983252 167.842425,144.753921 161.238064,164.519078 C155.946906,180.335038 157.672284,240.579466 157.672284,240.579466 C180.43768,254.593365 207.257714,240.914956 217.581222,210.021115 C225.843863,185.309876 217.782516,156.179754 199.579784,144.964801 Z M257.226561,82.5061377 C257.226561,99.9036934 249.491119,115.451261 237.317623,126.00482 L257.226561,158.039327 L277.125914,126.00482 C264.952418,115.451261 257.226561,99.9036934 257.226561,82.5061377 Z M199.579784,53.6923347 C183.658385,53.6923347 170.746811,66.5943236 170.746811,82.5061377 C170.746811,98.4275371 183.658385,111.339112 199.579784,111.339112 C215.491598,111.339112 228.403173,98.4275371 228.403173,82.5061377 C228.403173,66.5943236 215.491598,53.6923347 199.579784,53.6923347 Z M314.873338,53.6923347 C298.951939,53.6923347 286.04995,66.5943236 286.04995,82.5061377 C286.04995,98.4275371 298.951939,111.339112 314.873338,111.339112 C330.794738,111.339112 343.696727,98.4275371 343.696727,82.5061377 C343.696727,66.5943236 330.794738,53.6923347 314.873338,53.6923347 Z M199.579784,68.0992362 C207.535691,68.0992362 213.986686,74.5502306 213.986686,82.5061377 C213.986686,90.4716301 207.535691,96.93221 199.579784,96.93221 C191.614292,96.93221 185.163298,90.4716301 185.163298,82.5061377 C185.163298,74.5502306 191.614292,68.0992362 199.579784,68.0992362 Z M314.873338,68.0992362 C322.829245,68.0992362 329.28024,74.5502306 329.28024,82.5061377 C329.28024,90.4716301 322.829245,96.93221 314.873338,96.93221 C306.917431,96.93221 300.466437,90.4716301 300.466437,82.5061377 C300.466437,74.5502306 306.917431,68.0992362 314.873338,68.0992362 Z M191.767659,72.7002426 C190.176477,72.7002426 188.882444,74.0038611 188.882444,75.5950425 C188.882444,77.1862239 190.176477,78.4610861 191.767659,78.4610861 C193.35884,78.4610861 194.652873,77.1862239 194.652873,75.5950425 C194.652873,74.0038611 193.35884,72.7002426 191.767659,72.7002426 Z M307.070798,72.7002426 C305.479617,72.7002426 304.185584,74.0038611 304.185584,75.5950425 C304.185584,77.1862239 305.479617,78.4610861 307.070798,78.4610861 C308.652394,78.4610861 309.946427,77.1862239 309.946427,75.5950425 C309.946427,74.0038611 308.652394,72.7002426 307.070798,72.7002426 Z" id="Combined-Shape" fill="#1A171B"></path>
    </g>
</svg>