<?xml version="1.0" encoding="UTF-8"?>
<svg width="500px" height="500px" viewBox="0 0 500 500" version="1.1" xmlns="http://www.w3.org/2000/svg" xmlns:xlink="http://www.w3.org/1999/xlink">
    <title>Lume</title>
    <g id="Lume" stroke="none" stroke-width="1" fill="none" fill-rule="evenodd">
        <path d="M209.963648,146.05598 L202.998737,185.715453 L500,185.715453 L470.508346,353.66102 L173.264884,353.66102 L180.229795,314.001547 L0,314.001547 L29.4916543,146.05598 L209.963648,146.05598 Z M259.838474,200.872113 C241.956513,200.872113 231.406156,207.753273 227.890879,226.554231 L227.890879,226.554231 L226.666305,232.978155 L214.438665,232.978155 L211.228966,251.167958 L223.458869,251.167958 L213.673589,306.966466 C211.380623,319.959182 200.984187,322.865567 189.365439,323.474459 L189.365439,323.474459 L186.004083,343.04502 C220.858063,343.04502 238.131131,342.891099 244.398872,306.658625 L244.398872,306.658625 L254.027968,251.167958 L268.249786,251.167958 L274.055765,232.978155 L257.242194,232.978155 L258.310585,227.32157 C259.225055,222.581719 261.520284,221.511065 266.260135,221.511065 C272.98511,221.511065 281.697473,224.109608 281.697473,224.109608 L281.697473,224.109608 L284.909436,205.763621 C284.909436,205.763621 273.747923,200.872113 259.838474,200.872113 Z M303.656069,231.445739 C276.135957,231.445739 262.532086,257.132384 262.532086,286.483699 C262.532086,308.802197 273.535151,315.524909 287.449127,315.524909 C303.95712,315.524909 310.994463,302.688377 310.994463,302.688377 L310.998246,302.708239 C311.10037,303.233509 313.320443,314.001547 323.695183,314.001547 L343.62112,314.001547 L346.762912,296.187492 C345.343673,296.377629 338.944647,296.839391 340.54497,289.129776 C341.336756,285.324223 343.40508,273.996603 345.4733,262.50309 L345.755209,260.935455 C348.290229,246.829924 350.737687,232.978155 350.737687,232.978155 L329.338186,232.978155 L322.45929,238.021321 C322.45929,238.021321 322.37742,237.923528 322.20953,237.751795 L322.035092,237.577914 C320.517948,236.10165 314.846096,231.445739 303.656069,231.445739 Z M437.983549,231.445739 C420.862137,231.445739 409.39731,236.339511 400.988261,246.122528 C393.344289,254.988812 389.369514,268.594947 389.369514,282.201082 C389.369514,308.03712 408.021078,315.524909 426.213144,315.524909 C441.806667,315.524909 452.965916,312.011896 460.915466,303.756767 C470.0828,294.281592 474.827179,280.521536 474.827179,264.774093 C474.827179,238.940318 455.716116,231.445739 437.983549,231.445739 Z M397.853259,203.927891 L367.281897,203.927891 L347.869783,314.001547 L378.441146,314.001547 L397.853259,203.927891 Z M436.147818,250.860116 C442.261638,250.860116 444.556867,254.225999 444.556867,262.175549 C444.556867,273.026957 440.88767,295.958874 428.198268,295.958874 C422.240632,295.958874 419.945403,292.135756 419.945403,282.966158 C419.945403,272.264144 424.074099,250.860116 436.147818,250.860116 Z M307.626317,252.236348 C312.671746,252.236348 316.340943,254.531577 316.340943,254.531577 L312.520089,276.238919 C312.520089,276.238919 305.946771,295.044404 298.762297,295.044404 C294.787522,295.044404 293.413553,292.135756 293.413553,283.731235 C293.413553,275.319922 297.080487,252.236348 307.626317,252.236348 Z M70.1719837,192.130324 C41.1262466,192.130324 25.3810669,212.920933 25.3810669,242.582353 C25.3810669,269.330597 43.1113707,276.211757 61.1540429,276.211757 C78.2754546,276.211757 93.4094788,270.86075 93.4094788,270.86075 L93.4094788,270.86075 L95.7024442,248.539988 C95.7024442,248.539988 87.9781378,251.071045 79.2531621,252.792163 L78.4574129,252.946304 C74.2007108,253.755498 69.7566695,254.350494 65.8916308,254.350494 C60.8484651,254.350494 56.1086137,253.739338 55.4951945,246.247023 C82.5558076,245.789788 103.803652,242.426169 103.803652,217.352943 C103.803652,199.466455 88.0562082,192.130324 70.1719837,192.130324 Z M143.304677,193.660477 L112.726524,193.660477 L102.94577,249.456722 C99.42823,269.484518 109.822403,276.211757 124.195878,276.211757 C142.080102,276.211757 150.948649,262.300044 150.948649,262.300044 L150.948649,262.300044 L154.004427,274.683868 L176.474583,274.683868 L190.696401,193.660477 L160.118247,193.660477 L152.936037,234.173304 C152.936037,234.173304 147.431109,253.128183 137.340251,253.128183 C133.213818,253.128183 133.671053,249.153407 134.438393,244.873055 L134.438393,244.873055 L143.304677,193.660477 Z M68.490174,209.862891 C72.6211333,209.862891 74.760178,212.314304 74.760178,217.966362 C74.760178,226.834909 67.5734405,229.435716 55.8007723,229.736767 C57.3331885,217.660784 61.0023858,209.862891 68.490174,209.862891 Z" id="Combined-Shape" fill="#000000"></path>
    </g>
</svg>