<?xml version="1.0" encoding="UTF-8"?>
<svg
  width="500px"
  height="500px"
  viewBox="0 0 500 500"
  version="1.1"
  xmlns="http://www.w3.org/2000/svg"
  xmlns:xlink="http://www.w3.org/1999/xlink"
>
  <title>Lume</title>
  <g id="Lume" stroke="none" stroke-width="1" fill="none" fill-rule="evenodd">
    <path
      d="M34.6398538,197.340624 C43.0210268,197.340624 51.1228274,202.6487 51.1228274,210.471129 C51.1228274,219.909261 44.5133412,220.875424 44.5133412,227.16596 C44.5133412,233.693962 50.0053377,234.23641 50.0053377,239.178974 C50.0053377,242.808488 48.6084755,246.41472 44.1408447,251.443424 C40.7860473,255.354638 39.3891852,259.265852 39.3891852,262.897694 L39.3891852,262.897694 L39.1121408,284.220795 C38.8304403,290.366989 39.1121408,305.4531 25.141191,305.4531 C14.2456661,305.4531 9.21696224,300.145024 8.94224601,289.251827 L8.94224601,289.251827 L8.38117304,261.498504 C8.1018006,252.560914 5.68434189e-14,248.090955 5.68434189e-14,240.547899 C5.68434189e-14,232.962938 9.49866277,228.628009 9.49866277,221.152468 C9.49866277,215.585972 13.4098769,208.236149 15.3654839,206.00117 C20.3918596,199.575604 29.61115,197.340624 34.6398538,197.340624 Z M141.497482,217.313425 C166.361629,217.313425 186.194743,234.636844 186.194743,260.895525 C186.194743,284.921554 169.991142,305.034042 143.171388,305.034042 C113.001494,305.034042 97.0795929,286.318416 97.0795929,261.174897 C97.0795929,234.913889 115.797546,217.313425 141.497482,217.313425 Z M311.639951,217.313425 C336.501769,217.313425 356.337212,234.636844 356.337212,260.895525 C356.337212,284.921554 340.133611,305.034042 313.316185,305.034042 C283.146291,305.034042 267.222062,286.318416 267.222062,261.174897 C267.222062,234.913889 285.940015,217.313425 311.639951,217.313425 Z M74.1687252,194.5469 C85.0665782,194.5469 91.7691885,200.413721 91.7691885,216.614994 L91.7691885,216.614994 L91.7691885,285.89703 C91.7691885,296.510854 85.9046955,304.892027 74.1687252,304.892027 C65.7898802,304.892027 57.4087072,299.306907 57.4087072,283.664378 L57.4087072,283.664378 L57.6904077,213.541897 C57.6904077,203.486818 62.437411,194.5469 74.1687252,194.5469 Z M396.010426,217.874498 C416.683986,217.874498 428.697001,224.856481 428.697001,234.355144 C428.697001,242.177572 421.433318,244.971296 421.992062,248.88251 C422.269107,252.793724 426.462021,256.146194 427.856555,257.822428 C433.44866,264.806739 434.28445,268.15688 434.28445,272.90854 C434.28445,291.06542 420.038783,304.198252 397.966033,304.198252 C375.059821,304.198252 361.649945,295.814751 361.649945,285.198599 C361.649945,275.702264 370.869235,273.464956 370.869235,269.27437 C370.869235,265.365484 367.796138,263.407549 365.002414,258.660545 C363.046807,255.308076 361.649945,250.835789 361.649945,246.926903 C361.649945,230.723302 375.895611,217.874498 396.010426,217.874498 Z M232.016479,218.151542 C249.33757,218.151542 263.585564,227.09146 263.585564,237.707613 C263.585564,243.295062 258.55686,249.161883 250.452731,249.161883 C242.630303,249.161883 240.954069,245.250669 234.528503,245.250669 C227.267147,245.250669 222.238444,251.11749 222.238444,260.05508 C222.238444,270.112487 226.985447,276.819754 234.807875,276.819754 C238.719089,276.819754 240.954069,275.702264 243.258891,274.584774 L243.862882,274.29399 C245.99043,273.281388 248.302778,272.349795 252.128966,272.349795 C259.113277,272.349795 263.864936,277.096798 263.864936,283.24532 C263.864936,289.389185 257.15767,296.094124 249.33757,299.728293 C241.233519,303.506883 233.914817,303.632836 231.671519,303.637035 L231.457734,303.637179 C207.990449,303.637179 190.669358,285.480299 190.669358,260.895525 C190.669358,237.707613 206.314215,218.151542 232.016479,218.151542 Z M456.238467,251.113066 C457.914701,251.113066 459.253361,251.615937 459.758559,254.295584 C460.093806,256.139442 459.926183,256.642312 461.602417,260.330029 C462.528639,262.336843 465.445171,262.922006 465.900573,264.442165 C465.877804,264.714074 465.885255,265.014241 465.920571,265.345811 C465.640061,266.902876 463.872805,266.398892 461.26717,270.385108 C460.429053,271.726096 459.758559,275.246188 459.758559,278.59633 L459.758559,286.642256 C459.758559,288.823689 460.26143,293.684769 463.1087,295.693923 C464.452016,296.699663 466.966368,298.375898 466.966368,299.884509 C466.966368,301.895991 465.623052,302.901731 463.1087,302.901731 C455.90322,302.901731 452.215504,299.381639 452.215504,291.673288 L452.215504,277.090047 C452.215504,273.067083 451.547338,271.558472 449.868775,268.878825 C449.030658,267.370214 447.1868,266.69972 447.1868,264.855862 C447.1868,263.347251 450.204022,261.168146 451.209763,258.989041 L451.249438,258.949354 C451.535216,258.659032 451.419292,258.618872 452.383127,253.960337 C452.888326,251.615937 454.897479,251.113066 456.238467,251.113066 Z M496.966311,262.173654 C497.47151,262.173654 499.81591,262.341277 499.985862,264.520382 C500.151157,265.693747 498.812498,268.878592 498.812498,269.043888 L489.25796,296.867054 C488.25222,299.884276 486.408361,301.390559 483.558763,301.390559 C479.871047,301.390559 477.524318,300.387147 476.018035,295.861313 L466.633449,268.208098 C466.237679,267.066522 466.003079,266.12046 465.920571,265.345811 C465.947331,265.202787 465.960627,265.040794 465.960627,264.855862 C465.960627,264.710077 465.93967,264.572675 465.900573,264.442165 C466.007495,262.932366 466.963828,262.341277 468.642603,262.341277 C472.497942,262.341277 473.671307,263.011771 475.347541,270.72245 C477.524318,280.612235 478.865306,285.13574 482.888269,285.13574 C485.234997,285.13574 487.246479,283.291882 488.25222,279.769461 L491.769984,266.531864 C492.61043,263.682265 494.451959,262.173654 496.966311,262.173654 Z M442.241908,291.58901 C445.091507,291.58901 446.600118,292.760046 446.600118,296.112516 C446.600118,299.462657 445.426753,300.470726 442.579483,300.470726 C439.727556,300.470726 438.053649,299.632608 438.053649,296.112516 C438.053649,292.592423 439.559932,291.58901 442.241908,291.58901 Z M141.497482,246.366994 C135.351288,246.366994 130.043212,251.956771 130.043212,261.453106 C130.043212,269.834279 135.071916,276.259845 141.776854,276.259845 C147.923048,276.259845 153.231124,269.554906 153.231124,261.173733 C153.231124,253.351305 149.31991,246.366994 141.497482,246.366994 Z M311.639951,246.366994 C305.493757,246.366994 300.185681,251.956771 300.185681,261.453106 C300.185681,269.834279 305.214385,276.259845 311.919323,276.259845 C318.065517,276.259845 323.373593,269.554906 323.373593,261.173733 C323.373593,253.351305 319.462379,246.366994 311.639951,246.366994 Z"
      id="Combined-Shape"
      fill="#000000"
    ></path>
  </g>
</svg>
