<?xml version="1.0" encoding="UTF-8"?>
<svg width="500px" height="500px" viewBox="0 0 500 500" version="1.1" xmlns="http://www.w3.org/2000/svg" xmlns:xlink="http://www.w3.org/1999/xlink">
    <title>Lume</title>
    <g id="Lume" stroke="none" stroke-width="1" fill="none" fill-rule="evenodd">
        <path d="M209.795038,31.7241879 C194.075009,95.62296 274.472088,83.9431604 274.472088,177.459615 C300.773481,147.242543 279.548938,106.529218 321.660541,68.1451556 C321.660541,156.294931 405.378404,151.335526 373.064255,274.702302 C388.042328,265.523159 398.813711,250.41139 405.378404,229.366995 C418.616662,250.41139 413.671658,287.816417 390.54339,341.582076 C410.902993,332.996175 422.849862,321.12406 430.071955,304.472703 C431.649693,374.057203 404.397638,431.029797 358.771022,465.170673 C357.34317,433.612422 355.538097,403.621217 353.354738,375.196654 C349.629838,326.703184 341.153919,300.857924 324.031059,276.212079 C306.9082,251.566234 287.814433,243.647937 260.982175,239.931759 C234.149916,236.215581 207.605474,242.035754 178.25108,257.316071 C148.896686,272.596389 129.768514,303.653779 138.206227,321.418248 C146.643941,339.182717 173.846651,350.629304 205.580157,349.559575 C237.313664,348.489847 259.510244,337.183944 267.718068,334.126819 C275.925892,331.069693 279.387247,340.91529 273.111456,344.171496 C268.927596,346.3423 261.510121,350.205743 250.859032,355.761825 C255.014848,379.11862 257.092757,402.985071 257.092757,427.361177 C257.092757,449.210947 256.707483,473.384354 255.936936,499.881399 C252.64852,499.993188 249.32867,500.025488 245.979009,499.980227 C136.774622,498.504659 53.8829214,403.342983 72.4798449,284.932323 C75.2479222,297.251038 85.3899861,311.719623 99.9335803,317.749598 C74.1631914,201.317825 122.70834,196.959194 142.879619,134.813768 C139.601818,167.845425 142.879619,186.21008 158.812791,205.394202 C161.912451,196.175788 167.765991,187.453159 173.7364,178.668276 L174.822629,177.070214 C175.003686,176.803715 175.184704,176.537127 175.365609,176.270436 L176.449098,174.668919 L177.117957,173.6744 C177.340417,173.342667 177.562338,173.010698 177.783581,172.678461 L178.445132,171.680923 C188.773133,156.03937 197.292312,139.743735 189.477245,119.720186 C176.067726,85.3626886 177.346713,72.002437 209.795038,31.7241879 Z M209.385587,273.788136 C213.763013,273.788136 217.311617,277.336741 217.311617,281.714167 C217.311617,286.091593 213.763013,289.640198 209.385587,289.640198 C205.008161,289.640198 201.459556,286.091593 201.459556,281.714167 C201.459556,277.336741 205.008161,273.788136 209.385587,273.788136 Z M168.050636,266.898978 C172.428062,266.898978 175.976667,270.447583 175.976667,274.825008 C175.976667,279.202434 172.428062,282.751039 168.050636,282.751039 C163.673211,282.751039 160.124606,279.202434 160.124606,274.825008 C160.124606,270.447583 163.673211,266.898978 168.050636,266.898978 Z M172.289204,61.9162143 C163.664615,70.7163233 165.537013,96.3299761 175.45117,118.82042 C185.365327,141.310864 172.289204,158.236464 158.275633,179.074064 C160.722193,151.34543 158.16954,144.762839 146.265242,123.44358 C134.360943,102.124321 150.668933,73.9010186 172.289204,61.9162143 Z M257.032314,31.8733183 C262.680005,36.7804699 267.307158,40.4510273 271.090547,43.5888795 L271.888423,44.2533793 C281.047805,51.916736 285.012574,56.5649211 286.544806,69.1961985 C288.733708,87.2408805 278.955193,95.620389 282.86594,119.184956 C241.667591,85.3511307 273.9968,73.2978827 257.032314,31.8733183 Z M211.740939,1.6350624e-05 C226.235692,17.183009 234.846799,12.6854799 244.300983,34.646373 C253.755167,56.607266 241.91085,61.588239 250,87.9974111 C202.392798,47.0354839 231.929096,43.7194985 211.740939,1.6350624e-05 Z" id="Combined-Shape-Copy" fill="#000000"></path>
    </g>
</svg>