<?xml version="1.0" encoding="UTF-8"?>
<svg
  width="500px"
  height="500px"
  viewBox="0 0 500 500"
  version="1.1"
  xmlns="http://www.w3.org/2000/svg"
  xmlns:xlink="http://www.w3.org/1999/xlink"
>
  <title>Lume</title>
  <g id="Lume" stroke="none" stroke-width="1" fill="none" fill-rule="evenodd">
    <path
      d="M450,50 L450,450 L50,450 L50,50 L450,50 Z M445.65823,54.3417703 L54.3417703,54.3417703 L54.3417703,445.65823 L445.65823,445.65823 L445.65823,54.3417703 Z M232.938928,258.570742 L280.876793,373.833492 C284.041181,381.542742 292.142891,399.326984 305.382272,400.512601 L305.382272,402.883833 L242.341523,402.883833 L242.341523,400.512601 C260.523716,399.524587 265.661386,391.818082 257.16447,371.264657 L250.374622,355.091426 L196.028392,355.091426 L190.564128,369.28863 C183.450431,387.470823 184.83365,397.746163 201.435021,400.512601 L201.435021,402.883833 L160.328171,402.883833 L160.328171,400.512601 C170.013448,394.189314 177.324748,388.854042 184.83365,370.674594 L230.960157,258.570742 L232.938928,258.570742 Z M421.712625,260.59123 L425.31613,290.629584 L423.057421,290.629584 C416.138583,271.60758 402.506741,264.543284 382.548869,264.543284 L362.59977,264.543672 C353.798237,264.556312 352.959625,264.934146 352.941702,273.530901 L352.941398,328.572046 L366.378382,328.572046 C385.74619,328.572046 394.638312,317.506295 397.012288,303.871709 L399.380776,303.871709 L399.380776,357.424784 L397.012288,357.424784 C395.033517,340.823413 387.129409,332.5241 366.773587,332.5241 L352.941398,332.5241 L352.941398,376.59499 C352.941398,392.600808 355.707836,398.331286 374.482837,400.307313 L374.482837,402.678546 L313.616815,402.678546 L313.616815,400.307313 C331.444152,399.159928 331.978972,389.640781 331.995017,375.902855 L331.995513,288.060749 C331.995513,267.507324 329.028728,262.962462 315.790445,262.962462 L315.790445,260.59123 L421.712625,260.59123 Z M133.082053,307.426637 C146.324178,307.426637 157.192326,318.097182 157.192326,331.734513 C157.192326,344.973893 146.521781,355.844786 133.082053,355.844786 C119.447467,355.844786 108.774177,344.77629 108.774177,331.734513 C108.774177,318.297529 119.64507,307.426637 133.082053,307.426637 Z M223.102705,289.086636 L197.609213,351.139372 L248.7938,351.139372 L223.102705,289.086636 Z M336.131447,96.1292514 L336.131447,98.5004837 C317.162412,100.081305 319.928849,110.754595 327.634531,120.832333 L354.313639,155.415549 L380.202337,124.784387 C391.465691,111.545006 392.453704,100.674113 370.91501,98.5004837 L370.91501,96.1292514 L421.504045,96.1292514 L421.504045,98.5004837 C409.647883,100.278908 396.405758,112.53302 387.908842,122.610757 L357.080077,159.17 L395.022539,208.575339 C410.438294,228.533212 419.528018,233.670882 427.234523,235.844511 L427.234523,238.218488 L362.020144,238.218488 L362.020144,235.844511 C385.735212,233.078074 379.214323,222.012323 370.124599,209.958558 L343.643094,175.175818 L317.360014,206.40171 C307.677482,218.060269 297.992206,234.461293 322.695287,235.844511 L322.695287,238.218488 L271.90865,238.218488 L271.90865,235.844511 C282.579195,234.266434 291.273714,230.311636 308.467893,209.958558 L340.873912,171.61897 L303.327478,122.80836 C290.088098,105.614181 279.812758,98.6980864 269.929878,98.5004837 L269.929878,96.1292514 L336.131447,96.1292514 Z M116.841307,96.1292514 L174.151578,209.563627 L223.360138,96.1292514 L261.697805,96.1292514 L261.697805,98.5004837 C249.641296,99.4884972 244.898832,105.22172 244.898832,117.275484 L244.898986,208.999125 C244.906579,219.303148 245.286188,235.070183 264.26664,235.844786 L264.26664,238.216018 L204.78274,238.216018 L204.78274,235.844786 C220.19575,233.275951 223.950201,227.743075 223.950201,212.330065 L223.950201,106.206989 L166.642675,238.216018 L165.84952,238.216018 L102.41631,111.739864 L102.41631,203.830405 C102.41631,226.557459 111.703637,234.066362 125.733428,235.844786 L125.733428,238.216018 L77.9108318,238.216018 L77.9108318,235.844786 C90.9526097,234.266709 97.2786404,229.719102 97.2786404,204.821163 L97.2786404,118.4611 C97.2786404,103.045346 90.1621989,100.871716 79.4916533,98.5004837 L79.4916533,96.1292514 L116.841307,96.1292514 Z"
      id="Combined-Shape"
      fill="#000000"
    ></path>
  </g>
</svg>
