<?xml version="1.0" encoding="UTF-8"?>
<svg
  width="500px"
  height="500px"
  viewBox="0 0 500 500"
  version="1.1"
  xmlns="http://www.w3.org/2000/svg"
  xmlns:xlink="http://www.w3.org/1999/xlink"
>
  <title>Lume</title>
  <g id="Lume" stroke="none" stroke-width="1" fill="none" fill-rule="evenodd">
    <path
      d="M182.371734,202.07922 C190.841882,202.07922 198.604267,203.533875 205.664642,206.44664 C212.720414,209.357103 218.766903,213.551898 223.796054,219.019517 C228.825204,224.490588 232.750704,231.021579 235.574854,238.606735 C237.85581,244.742989 239.201136,251.408628 239.638454,258.580634 L239.638454,258.580634 L248.543618,205.255525 L282.954747,205.255525 L279.247906,227.754357 C281.009835,224.93366 282.995026,221.976013 285.20463,218.88717 C287.40848,215.801781 289.969089,213.063943 292.880702,210.680563 C295.791165,208.299485 299.18728,206.313143 303.070199,204.726141 C306.949665,203.137988 311.627811,202.343912 317.100033,202.343912 C322.567652,202.343912 327.198613,203.228904 330.99637,204.990833 C334.788373,206.756215 337.919796,208.919785 340.39179,211.475791 C342.860332,214.035248 344.760362,216.728203 346.082671,219.54775 C347.407283,222.373051 348.507482,224.842744 349.391323,226.95913 C351.154403,224.313359 353.138443,221.578974 355.346896,218.754824 C357.551897,215.934127 360.153936,213.373518 363.155314,211.078752 C366.154391,208.787439 369.640272,206.888561 373.610654,205.387871 C377.581036,203.890634 382.386925,203.137988 388.036376,203.137988 C394.033379,203.137988 399.373255,204.109293 404.05025,206.048451 C408.723793,207.992212 412.652745,210.640284 415.830201,213.989215 C419.006507,217.3439 421.388736,221.2694 422.976889,225.769166 C424.565042,230.267782 425.357967,235.078274 425.357967,240.193737 C425.357967,241.783041 425.313085,243.237696 425.226772,244.562308 C425.135856,245.885769 425.002359,247.340425 424.828583,248.929728 C424.651354,250.517881 424.340629,252.503072 423.902161,254.884151 C423.46024,257.26638 422.976889,260.31034 422.447505,264.01718 L422.447505,264.01718 L410.271666,336.807519 L372.948924,336.807519 L385.390605,263.487796 C386.270994,258.192802 386.800378,254.711525 386.977607,253.032457 C387.152534,251.35684 387.24345,249.814721 387.24345,248.400344 C387.24345,242.754346 385.872805,238.783964 383.139571,236.489198 C380.402884,234.196734 377.094233,233.047049 373.213616,233.047049 C368.271929,233.047049 364.255513,234.330231 361.171274,236.885085 C358.081281,239.445694 355.612739,242.668033 353.758743,246.546348 C351.907049,250.430418 350.537555,254.666643 349.657166,259.251571 C348.771023,263.843404 347.978097,268.078478 347.273786,271.957945 L347.273786,271.957945 L336.422559,336.807519 L299.629201,336.807519 L312.600267,258.458645 C312.951271,257.047721 313.302276,255.06253 313.657884,252.503072 C314.01004,249.947067 314.187269,247.960725 314.187269,246.546348 C314.187269,241.960269 312.996154,238.432959 310.613925,235.959813 C308.232846,233.490121 305.010507,232.254124 300.952662,232.254124 C298.306891,232.254124 295.746282,232.782357 293.27774,233.841126 C290.803444,234.901045 288.334902,236.75389 285.86521,239.39966 C284.277057,241.518348 282.954747,243.635886 281.895978,245.752272 C280.836059,247.87096 279.909636,250.344105 279.116711,253.164803 C278.321484,255.988953 277.568837,259.42995 276.866828,263.487796 C276.159064,267.547943 275.278675,272.578245 274.218755,278.575248 L274.218755,278.575248 L264.425146,336.807519 L226.575321,336.807519 L233.169608,297.315452 C230.078464,304.657781 226.081613,311.210638 221.149132,316.955608 C215.234989,323.837604 208.134335,329.308675 199.841415,333.36537 C191.545043,337.423216 182.459197,339.453289 172.578124,339.453289 C164.281752,339.453289 156.60568,338.038913 149.549908,335.219366 C142.490684,332.398668 136.402765,328.382253 131.286151,323.174723 C126.166084,317.972947 122.154272,311.661766 119.242658,304.250386 C118.590135,302.588579 118.021622,300.877287 117.515254,299.126866 C114.540345,305.739567 110.798979,311.685933 106.273894,316.955608 C100.359751,323.837604 93.2579459,329.308675 84.9661769,333.36537 C76.6698046,337.423216 67.5828084,339.453289 57.7028865,339.453289 C49.4065142,339.453289 41.7304421,338.038913 34.6746703,335.219366 C27.6142952,332.398668 21.526376,328.382253 16.4109127,323.174723 C11.290846,317.972947 7.27903385,311.661766 4.36742031,304.250386 C1.45580677,296.837855 -1.42108547e-13,288.546086 -1.42108547e-13,279.368174 C-1.42108547e-13,276.547476 0.173776144,273.637013 0.52938428,270.634484 C0.880389074,267.635407 1.27742728,264.856139 1.72049891,262.295531 C2.15896719,259.740676 2.60088798,257.532223 3.04395961,255.678227 C3.48242789,253.825382 3.79200261,252.547955 3.9703821,251.841342 C7.14668778,241.783041 11.249416,233.536154 16.2785666,227.092627 C21.3077173,220.652552 26.7339061,215.578519 32.5571332,211.872829 C38.3803603,208.167139 44.3359335,205.611133 50.4238527,204.196757 C56.5117719,202.785832 62.2026529,202.07922 67.4964957,202.07922 C75.9666442,202.07922 83.7290289,203.533875 90.789404,206.44664 C97.8451758,209.357103 103.891665,213.551898 108.920816,219.019517 C113.949966,224.490588 117.874315,231.021579 120.699616,238.606735 C121.225548,240.021112 121.685882,241.473466 122.113993,242.944233 C124.694165,236.814884 127.700148,231.517589 131.153805,227.092627 C136.182955,220.652552 141.609144,215.578519 147.432371,211.872829 C153.255598,208.167139 159.211171,205.611133 165.299091,204.196757 C171.38701,202.785832 177.077891,202.07922 182.371734,202.07922 Z M476.972935,297.632622 L470.619172,336.807058 L431.444736,336.807058 L438.062039,297.632622 L476.972935,297.632622 Z M182.371734,227.488514 C174.960354,227.488514 169.356936,230.267782 165.563783,235.826317 C161.767177,241.386002 158.900446,249.020644 156.961288,258.723338 C155.546912,265.253178 154.666522,270.944059 154.314367,275.79483 C153.958759,280.651355 153.784983,285.018775 153.784983,288.898241 C153.784983,291.545163 153.958759,294.370464 154.314367,297.36839 C154.666522,300.369769 155.505481,303.150187 156.828942,305.705042 C158.152403,308.26565 160.137594,310.338305 162.784515,311.925307 C165.431437,313.51346 168.959898,314.308687 173.372201,314.308687 C177.251667,314.308687 180.871044,313.294801 184.224579,311.263576 C187.57466,309.238106 190.486274,305.221691 192.959419,299.220084 C194.547572,295.515545 195.871033,291.503733 196.929801,287.177743 C197.98857,282.855205 198.824076,278.533818 199.444377,274.207828 C200.061224,269.88529 200.544575,265.828595 200.900183,262.031989 C201.252339,258.238836 201.429568,255.108564 201.429568,252.634267 C201.429568,251.224494 201.338652,249.106957 201.164876,246.281656 C200.987647,243.462109 200.279883,240.682842 199.047338,237.945005 C197.81019,235.21062 195.912463,232.782357 193.356457,230.665971 C190.797,228.548434 187.136192,227.488514 182.371734,227.488514 Z M67.4964957,227.488514 C60.0851158,227.488514 54.4805474,230.267782 50.6885448,235.826317 C46.8919389,241.386002 44.0252079,249.020644 42.0860503,258.723338 C40.6705227,265.253178 39.7901337,270.944059 39.4391289,275.79483 C39.0835207,280.651355 38.9097446,285.018775 38.9097446,288.898241 C38.9097446,291.545163 39.0835207,294.370464 39.4391289,297.36839 C39.7901337,300.369769 40.6302435,303.150187 41.9537042,305.705042 C43.2771649,308.26565 45.2623559,310.338305 47.9092773,311.925307 C50.5561987,313.51346 54.0835092,314.308687 58.4969629,314.308687 C62.376429,314.308687 65.9946555,313.294801 69.3493407,311.263576 C72.6994225,309.238106 75.6110361,305.221691 78.0841813,299.220084 C79.6723341,295.515545 80.9957948,291.503733 82.0545634,287.177743 C83.113332,282.855205 83.9488385,278.533818 84.5691387,274.207828 C85.1848357,269.88529 85.6693374,265.828595 86.0249455,262.031989 C86.3759503,258.238836 86.5543298,255.108564 86.5543298,252.634267 C86.5543298,251.224494 86.4634138,249.106957 86.2896376,246.281656 C86.1112582,243.462109 85.4046452,240.682842 84.1721005,237.945005 C82.9349525,235.21062 81.0372249,232.782357 78.4812195,230.665971 C75.9206108,228.548434 72.2609542,227.488514 67.4964957,227.488514 Z M500,160.256711 L468.765177,283.603708 L448.120341,283.603708 L454.737644,160.256711 L500,160.256711 Z"
      id="Combined-Shape"
      fill="#000000"
    ></path>
  </g>
</svg>
