<?xml version="1.0" encoding="UTF-8"?>
<svg width="500px" height="500px" viewBox="0 0 500 500" version="1.1" xmlns="http://www.w3.org/2000/svg" xmlns:xlink="http://www.w3.org/1999/xlink">
    <title>Lume</title>
    <g id="Lume" stroke="none" stroke-width="1" fill="none" fill-rule="evenodd">
        <path d="M0,99.0649616 C90.7170454,49.8189696 204.298411,82.6623371 253.699336,172.423961 C253.904684,172.797768 254.097736,173.175264 254.30001,173.550301 C267.215409,154.827368 284.65215,138.749365 306.088873,127.103557 C364.134084,95.5709732 436.834003,116.566259 468.461268,174.007722 C493.7664,219.964459 476.632147,277.669678 430.192781,302.900418 L430.192781,302.900418 L500,401.786682 C409.306318,451.060341 295.712041,418.248329 246.292056,328.489594 C246.079946,328.104106 245.880746,327.715543 245.672324,327.32944 C232.749547,346.062824 215.298664,362.14759 193.844113,373.794812 C135.792139,405.321863 63.0995974,384.304444 31.4883173,326.852344 C6.19609618,280.890689 23.348179,223.191618 69.7881597,197.97379 L69.7881597,197.97379 Z M372.315414,265.44533 C364.34312,265.44533 359.787348,271.091167 359.787348,278.731462 C359.787348,286.087712 364.771031,291.308098 372.173392,291.308098 C378.62771,291.308098 383.136142,287.74894 383.989504,281.246666 L383.989504,281.246666 L377.48846,281.246666 C377.061779,284.236507 375.257915,286.229734 372.126052,286.229734 C367.902279,286.229734 366.52571,282.005962 366.52571,278.494758 C366.52571,274.888259 367.950234,270.52185 372.268074,270.52185 C375.067937,270.52185 376.823846,271.9931 377.251142,274.745622 L377.251142,274.745622 L383.847482,274.745622 C383.420186,268.481282 378.105118,265.44533 372.315414,265.44533 Z M264.498545,265.44533 C259.230818,265.44533 253.820455,267.057987 253.820455,273.321713 C253.820455,277.640782 257.712228,279.016736 261.603386,279.871327 C266.443817,280.915281 269.24368,281.627236 269.24368,283.667189 C269.24368,286.040371 266.776431,286.799667 264.82993,286.799667 C262.172704,286.799667 259.70484,285.612461 259.657499,282.670576 L259.657499,282.670576 L253.251137,282.670576 C253.536411,289.17162 259.088182,291.308098 264.783204,291.308098 C270.382931,291.308098 275.982657,289.22019 275.982657,282.765872 C275.982657,278.2101 272.13884,276.78619 268.199111,275.884873 C264.355908,274.98294 260.559432,274.650326 260.559432,272.231033 C260.559432,270.237191 262.789977,269.953147 264.307953,269.953147 C266.728476,269.953147 268.722318,270.665101 268.911681,273.274372 L268.911681,273.274372 L275.318658,273.274372 C274.796066,267.24735 269.860954,265.44533 264.498545,265.44533 Z M190.847509,265.44533 C183.396577,265.44533 178.319443,271.043212 178.319443,278.400077 C178.319443,285.993031 183.112533,291.308098 190.847509,291.308098 C196.399895,291.308098 200.433075,288.83962 202.332236,283.049916 L202.332236,283.049916 L196.399895,283.049916 C195.973214,284.568507 193.790009,286.229734 191.084827,286.229734 C187.335691,286.229734 185.247782,284.284463 185.057805,280.013349 L185.057805,280.013349 L202.758917,280.013349 C203.233553,272.467736 199.199758,265.44533 190.847509,265.44533 Z M71.1186173,256.759852 L64.3802551,256.759852 L64.3802551,269.098555 L64.2855738,269.098555 C62.7663682,266.678647 59.9191642,265.44533 57.0246196,265.44533 C49.8110062,265.44533 46.1571661,271.566419 46.1571661,278.162144 C46.1571661,284.948462 49.7636655,291.308098 57.1666417,291.308098 C60.2985045,291.308098 63.0510271,290.168848 64.6175734,287.511007 L64.6175734,287.511007 L64.7122547,287.511007 L64.7122547,290.64287 L71.1186173,290.64287 L71.1186173,256.759852 Z M419.391728,265.44533 C414.123386,265.44533 408.713022,267.057987 408.713022,273.321713 C408.713022,277.640782 412.604795,279.016736 416.496568,279.871327 C421.336999,280.915281 424.136248,281.627236 424.136248,283.667189 C424.136248,286.040371 421.669614,286.799667 419.723112,286.799667 C417.065886,286.799667 414.598022,285.612461 414.550067,282.670576 L414.550067,282.670576 L408.144319,282.670576 C408.428363,289.17162 413.981364,291.308098 419.675157,291.308098 C425.276113,291.308098 430.875225,289.22019 430.875225,282.765872 C430.875225,278.2101 427.031407,276.78619 423.092293,275.884873 C419.249091,274.98294 415.451999,274.650326 415.451999,272.231033 C415.451999,270.237191 417.683159,269.953147 419.20175,269.953147 C421.621658,269.953147 423.614885,270.665101 423.804248,273.274372 L423.804248,273.274372 L430.211226,273.274372 C429.689248,267.24735 424.753521,265.44533 419.391728,265.44533 Z M107.801499,265.44533 C102.533772,265.44533 97.1240228,267.057987 97.1240228,273.321713 C97.1240228,277.640782 101.015181,279.016736 104.906954,279.871327 C109.74677,280.915281 112.547248,281.627236 112.547248,283.667189 C112.547248,286.040371 110.079385,286.799667 108.133498,286.799667 C105.476272,286.799667 103.008408,285.612461 102.961068,282.670576 L102.961068,282.670576 L96.5540901,282.670576 C96.8393638,289.17162 102.391135,291.308098 108.086158,291.308098 C113.685884,291.308098 119.285611,289.22019 119.285611,282.765872 C119.285611,278.2101 115.441793,276.78619 111.502679,275.884873 C107.658862,274.98294 103.863,274.650326 103.863,272.231033 C103.863,270.237191 106.09293,269.953147 107.610906,269.953147 C110.032044,269.953147 112.024657,270.665101 112.215249,273.274372 L112.215249,273.274372 L118.620382,273.274372 C118.099634,267.24735 113.163292,265.44533 107.801499,265.44533 Z M312.806946,265.44533 C305.356629,265.44533 300.27888,271.043212 300.27888,278.400077 C300.27888,285.993031 305.071355,291.308098 312.806946,291.308098 C318.359332,291.308098 322.393127,288.83962 324.292288,283.049916 L324.292288,283.049916 L318.359332,283.049916 C317.932651,284.568507 315.750061,286.229734 313.044879,286.229734 C309.295128,286.229734 307.207834,284.284463 307.017857,280.013349 L307.017857,280.013349 L324.718354,280.013349 C325.19422,272.467736 321.159195,265.44533 312.806946,265.44533 Z M213.958985,265.44533 C208.691258,265.44533 203.281509,267.057987 203.281509,273.321713 C203.281509,277.640782 207.172052,279.016736 211.063825,279.871327 C215.903641,280.915281 218.70412,281.627236 218.70412,283.667189 C218.70412,286.040371 216.236871,286.799667 214.290984,286.799667 C211.633143,286.799667 209.165894,285.612461 209.118553,282.670576 L209.118553,282.670576 L202.711576,282.670576 C202.996235,289.17162 208.548621,291.308098 214.243643,291.308098 C219.842755,291.308098 225.443096,289.22019 225.443096,282.765872 C225.443096,278.2101 221.599279,276.78619 217.660165,275.884873 C213.815733,274.98294 210.019871,274.650326 210.019871,272.231033 C210.019871,270.237191 212.250416,269.953147 213.768392,269.953147 C216.18953,269.953147 218.182142,270.665101 218.371505,273.274372 L218.371505,273.274372 L224.777868,273.274372 C224.256505,267.24735 219.320778,265.44533 213.958985,265.44533 Z M288.842723,265.44533 C280.869814,265.44533 276.314042,271.091167 276.314042,278.731462 C276.314042,286.087712 281.29711,291.308098 288.700701,291.308098 C295.154404,291.308098 299.662221,287.74894 300.516198,281.246666 L300.516198,281.246666 L294.015154,281.246666 C293.587858,284.236507 291.785223,286.229734 288.652131,286.229734 C284.429588,286.229734 283.053634,282.005962 283.053634,278.494758 C283.053634,274.888259 284.476928,270.52185 288.794768,270.52185 C291.595246,270.52185 293.351155,271.9931 293.777221,274.745622 L293.777221,274.745622 L300.374176,274.745622 C299.947495,268.481282 294.631812,265.44533 288.842723,265.44533 Z M84.5959565,265.44533 C79.0915261,265.44533 73.4438441,267.342646 73.0645038,273.653712 L73.0645038,273.653712 L79.802866,273.653712 C80.0401842,270.996486 81.7014119,269.953147 84.2639569,269.953147 C86.6365244,269.953147 88.6297516,270.379213 88.6297516,273.274372 C88.6297516,276.026895 84.785934,275.884873 80.6568428,276.502146 C76.4810256,277.070234 72.3045936,278.400077 72.3045936,283.951848 C72.3045936,288.982257 76.0063891,291.308098 80.6568428,291.308098 C83.6466836,291.308098 86.7785464,290.500848 88.9144105,288.270917 C88.9617512,289.076938 89.1517287,289.884189 89.389047,290.64287 L89.389047,290.64287 L96.2227053,290.64287 C95.605432,289.646871 95.3681138,287.416325 95.3681138,285.18578 L95.3681138,285.18578 L95.3681138,272.420395 C95.3681138,266.535395 89.4837283,265.44533 84.5959565,265.44533 Z M396.185571,265.44533 C390.680525,265.44533 385.034073,267.342646 384.654118,273.653712 L384.654118,273.653712 L391.391865,273.653712 C391.629798,270.996486 393.290411,269.953147 395.853571,269.953147 C398.226138,269.953147 400.219366,270.379213 400.219366,273.274372 C400.219366,276.026895 396.374933,275.884873 392.246457,276.502146 C388.07064,277.070234 383.894823,278.400077 383.894823,283.951848 C383.894823,288.982257 387.596618,291.308098 392.246457,291.308098 C395.236912,291.308098 398.368775,290.500848 400.504025,288.270917 C400.551365,289.076938 400.741343,289.884189 400.978661,290.64287 L400.978661,290.64287 L407.812319,290.64287 C407.195661,289.646871 406.957728,287.416325 406.957728,285.18578 L406.957728,285.18578 L406.957728,272.420395 C406.957728,266.535395 401.073957,265.44533 396.185571,265.44533 Z M137.983336,256.759852 L130.343042,256.759852 L117.481746,290.64287 L125.027359,290.64287 L127.684586,283.098486 L140.355904,283.098486 L142.918449,290.64287 L156.775743,290.64287 L156.775743,279.586053 C156.775743,275.267599 158.483696,271.708441 163.419424,271.708441 C164.167233,271.708441 165.078321,271.789816 167.452319,271.914845 L167.452319,271.914845 L167.452604,285.091713 C167.452604,289.97887 171.058488,290.927529 175.18758,290.927529 C176.516808,290.927529 177.988058,290.880803 179.127308,290.690825 L179.127308,290.690825 L179.127308,285.423098 C178.414739,285.56512 177.750125,285.612461 177.03817,285.612461 C174.760899,285.612461 174.190966,285.044373 174.190966,282.765872 L174.190966,282.765872 L174.190966,270.617146 L179.127308,270.617146 L179.127308,266.109329 L174.190966,266.109329 L174.190966,258.753079 L167.452604,258.753079 L167.451699,265.648487 C165.322051,265.525038 164.804478,265.44533 164.368697,265.44533 C161.093582,265.44533 157.771742,267.579964 156.53781,270.665101 L156.53781,270.665101 L156.443128,270.665101 L156.443128,266.109329 L150.036151,266.109329 L150.035166,288.989673 L137.983336,256.759852 Z M236.97332,230.136558 C230.092935,230.136558 226.439095,235.926877 226.439095,242.285899 C226.439095,249.024261 229.570958,254.624602 236.925979,254.624602 C239.868479,254.624602 242.810979,253.390056 244.281614,250.827511 L244.281614,250.827511 L244.376911,250.827511 L244.376911,254.05467 C244.424251,257.566488 242.715683,260.129033 238.967776,260.129033 C236.593979,260.129033 234.554641,259.274441 233.936753,256.759852 L233.936753,256.759852 L227.245731,256.759852 L227.245731,290.64287 L252.965863,290.64287 L252.965863,284.379759 L234.696048,284.379759 L234.696048,276.074235 L251.115273,276.074235 L251.115273,270.284531 L234.696048,270.284531 L234.695381,264.269033 C235.812291,264.519205 236.960094,264.638079 238.065844,264.638079 C241.487262,264.638079 244.002877,264.010946 245.847506,263.024484 L245.847506,263.024484 L252.587138,263.024192 L252.587138,256.759852 L250.482135,256.759968 C250.713951,255.695731 250.783888,254.664126 250.783888,253.770011 L250.783888,253.770011 L250.783888,230.801787 L244.376911,230.801787 L244.376911,234.076286 L244.281614,234.076286 C242.668342,231.228468 240.200479,230.136558 236.97332,230.136558 Z M358.080009,266.109329 L351.340418,266.109329 L351.340418,290.64287 L358.080009,290.64287 L358.080009,266.109329 Z M339.904261,265.44533 C337.057672,265.44533 334.114557,266.772713 332.405989,269.525236 L332.405989,269.525236 L332.264582,269.525236 L332.264582,266.109329 L325.857604,266.109329 L325.857604,290.64287 L332.595966,290.64287 L332.595966,277.782804 C332.595966,272.800351 334.162513,270.759783 337.815738,270.759783 C340.948215,270.759783 342.133577,272.75178 342.133577,276.78619 L342.133577,276.78619 L342.133577,290.64287 L348.872554,290.64287 L348.872554,275.552258 C348.872554,269.477895 347.069919,265.44533 339.904261,265.44533 Z M400.219366,278.63678 L400.219139,281.236493 C400.210566,282.777078 399.931234,286.799667 394.761661,286.799667 C392.579071,286.799667 390.6338,286.182394 390.6338,283.667189 C390.6338,281.19994 392.531731,280.487371 394.619639,280.061305 C395.017336,279.988815 395.425338,279.928416 395.833169,279.871243 L395.833169,279.871243 L396.443475,279.786796 C397.962371,279.576191 399.405176,279.348647 400.219366,278.63678 L400.219366,278.63678 Z M88.6297516,278.63678 L88.6295251,281.236493 C88.620974,282.777078 88.3422235,286.799667 83.1720471,286.799667 C80.9888424,286.799667 79.0435706,286.182394 79.0435706,283.667189 C79.0435706,281.19994 80.9421165,280.487371 83.0300251,280.061305 C85.1179336,279.680735 87.4905011,279.633394 88.6297516,278.63678 L88.6297516,278.63678 Z M58.8278693,270.52185 C63.193664,270.52185 64.6175734,274.318326 64.6175734,278.304781 C64.6175734,282.338576 63.2883453,286.229734 58.8278693,286.229734 C54.6514373,286.229734 52.8961431,282.195939 52.8961431,278.352736 C52.8961431,274.318326 54.4147339,270.52185 58.8278693,270.52185 Z M134.138904,265.111486 L138.409402,277.545486 L129.631087,277.545486 L134.043608,265.111486 L134.138904,265.111486 Z M312.617583,270.52185 C315.892083,270.52185 317.363333,272.325714 317.979991,275.742236 L317.979991,275.742236 L307.017857,275.742236 C307.111923,273.84369 308.34647,270.52185 312.617583,270.52185 Z M190.657531,270.52185 C193.933261,270.52185 195.403896,272.325714 196.020554,275.742236 L196.020554,275.742236 L185.057805,275.742236 C185.153101,273.84369 186.387033,270.52185 190.657531,270.52185 Z M320.970447,256.332556 L313.518901,256.332556 L308.963743,263.071533 L313.661537,263.071533 L320.970447,256.332556 Z M358.080009,256.759852 L351.340418,256.759852 L351.340418,262.312237 L358.080009,262.312237 L358.080009,256.759852 Z M151.364764,220.645673 C140.877266,220.645673 134.706992,228.475945 134.706992,238.536763 C134.706992,248.312306 140.877266,256.143193 151.364764,256.143193 C154.639264,256.143193 158.056401,254.861306 160.665671,251.49151 L160.665671,251.49151 L161.426196,255.336557 L166.170717,255.336557 L166.170717,237.017557 L151.934082,237.017557 L151.934082,242.571172 L159.431125,242.571172 C159.005059,247.268352 156.205195,249.878238 151.364764,249.878238 C144.673128,249.878238 142.158538,244.185059 142.158538,238.536763 C142.158538,232.605036 144.673128,226.910014 151.364764,226.910014 C154.875967,226.910014 157.676445,228.856515 158.530422,232.605036 L158.530422,232.605036 L165.649354,232.605036 C164.842103,224.916786 158.293719,220.645673 151.364764,220.645673 Z M179.980055,230.136558 C174.475625,230.136558 168.827943,232.035719 168.448603,238.346785 L168.448603,238.346785 L175.186965,238.346785 C175.424898,235.690173 177.086126,234.645604 179.648056,234.645604 C182.021238,234.645604 184.013851,235.0729 184.013851,237.967445 C184.013851,240.719352 180.170648,240.57733 176.041557,241.193989 C171.865739,241.763922 167.689922,243.092535 167.689922,248.644306 C167.689922,253.675329 171.391103,256.000556 176.041557,256.000556 C179.030783,256.000556 182.16326,255.19392 184.298509,252.963375 C184.34585,253.770011 184.535828,254.576647 184.773761,255.336557 L184.773761,255.336557 L191.606804,255.336557 C190.989531,254.339329 190.753442,252.108783 190.753442,249.878238 L190.753442,249.878238 L190.753442,237.113468 C190.753442,231.228468 184.867827,230.136558 179.980055,230.136558 Z M96.8393638,230.136558 C91.3343187,230.136558 85.6872515,232.035719 85.3072964,238.346785 L85.3072964,238.346785 L92.0462734,238.346785 C92.2835916,235.690173 93.9442044,234.645604 96.5067494,234.645604 C98.8793169,234.645604 100.872544,235.0729 100.872544,237.967445 C100.872544,240.719352 97.0287266,240.57733 92.9002501,241.193989 C88.724433,241.763922 84.5486158,243.092535 84.5486158,248.644306 C84.5486158,253.675329 88.2497965,256.000556 92.9002501,256.000556 C95.8900909,256.000556 99.0225686,255.19392 101.157203,252.963375 C101.204544,253.770011 101.395136,254.576647 101.631839,255.336557 L101.631839,255.336557 L108.465498,255.336557 C107.848839,254.339329 107.610906,252.108783 107.610906,249.878238 L107.610906,249.878238 L107.610906,237.113468 C107.610906,231.228468 101.727136,230.136558 96.8393638,230.136558 Z M265.352522,230.136558 C257.664887,230.136558 252.681204,235.262263 252.681204,243.092535 C252.681204,250.875466 257.664887,256.000556 265.352522,256.000556 C273.087498,256.000556 278.070566,250.875466 278.070566,243.092535 C278.070566,235.262263 273.087498,230.136558 265.352522,230.136558 Z M214.053051,230.136558 C206.602734,230.136558 201.52437,235.736899 201.52437,243.092535 C201.52437,250.685489 206.318075,256.000556 214.053051,256.000556 C219.604822,256.000556 223.639232,253.533307 225.537163,247.743603 L225.537163,247.743603 L219.604822,247.743603 C219.178756,249.261579 216.994936,250.922807 214.290369,250.922807 C210.541848,250.922807 208.453325,248.97692 208.263347,244.705807 L208.263347,244.705807 L225.964459,244.705807 C226.439095,237.160809 222.4053,230.136558 214.053051,230.136558 Z M63.193664,221.452309 L47.9124603,221.452309 L47.9124603,255.336557 L55.363392,255.336557 L55.363392,243.187831 L63.193664,243.187831 C71.6405945,243.187831 74.9150942,237.824808 74.9150942,232.320992 C74.9150942,226.815332 71.6405945,221.452309 63.193664,221.452309 L63.193664,221.452309 Z M83.0300251,221.452309 L76.2910481,221.452309 L76.2910481,255.336557 L83.0300251,255.336557 L83.0300251,221.452309 Z M124.126042,230.136558 C121.278223,230.136558 118.336953,231.465786 116.627769,234.218309 L116.627769,234.218309 L116.485747,234.218309 L116.485747,230.801787 L110.07877,230.801787 L110.07877,255.336557 L116.817747,255.336557 L116.817747,242.475876 C116.817747,237.492808 118.384293,235.45224 122.037518,235.45224 C125.169996,235.45224 126.355972,237.446082 126.355972,241.479263 L126.355972,241.479263 L126.355972,255.336557 L133.094335,255.336557 L133.094335,240.244716 C133.094335,234.170968 131.2917,230.136558 124.126042,230.136558 Z M200.149031,221.452309 L193.410054,221.452309 L193.410054,255.336557 L200.149031,255.336557 L200.149031,221.452309 Z M100.872544,243.329853 L100.872318,245.929466 C100.863789,247.468328 100.58562,251.49151 95.4148396,251.49151 C93.2328645,251.49151 91.286978,250.875466 91.286978,248.360262 C91.286978,245.893013 93.1855238,245.180443 95.2728176,244.753148 C97.3607262,244.373807 99.7339085,244.326467 100.872544,243.329853 L100.872544,243.329853 Z M184.013851,243.329853 L184.013625,245.929466 C184.005096,247.468328 183.726937,251.49151 178.556761,251.49151 C176.373556,251.49151 174.428284,250.875466 174.428284,248.360262 C174.428284,245.893013 176.326215,245.180443 178.413509,244.753148 C180.502647,244.373807 182.875215,244.326467 184.013851,243.329853 L184.013851,243.329853 Z M265.352522,235.214922 C269.955635,235.214922 271.330974,239.154036 271.330974,243.092535 C271.330974,246.983693 269.955635,250.922807 265.352522,250.922807 C260.796135,250.922807 259.419566,246.983693 259.419566,243.092535 C259.419566,239.154036 260.796135,235.214922 265.352522,235.214922 Z M238.635162,235.214922 C243.000342,235.214922 244.376911,238.774081 244.376911,242.760535 C244.376911,246.271738 242.47898,249.546238 238.635162,249.546238 C234.506071,249.546238 233.177457,245.70242 233.177457,242.190603 C233.177457,238.536763 234.83807,235.214922 238.635162,235.214922 Z M213.863074,235.214922 C217.137573,235.214922 218.608209,237.017557 219.225482,240.434694 L219.225482,240.434694 L208.263347,240.434694 C208.358028,238.536763 209.59196,235.214922 213.863074,235.214922 Z M61.1524813,227.242628 C64.6175734,227.242628 67.7014807,228.001309 67.7014807,232.320992 C67.7014807,236.638832 64.6175734,237.398127 61.1524813,237.398127 L61.1524813,237.398127 L55.363392,237.398127 L55.363392,227.242628 Z" id="Combined-Shape" fill="#000000"></path>
    </g>
</svg>