<?xml version="1.0" encoding="UTF-8"?>
<svg width="500px" height="500px" viewBox="0 0 500 500" version="1.1" xmlns="http://www.w3.org/2000/svg" xmlns:xlink="http://www.w3.org/1999/xlink">
    <title>Lume</title>
    <g id="Lume" stroke="none" stroke-width="1" fill="none" fill-rule="evenodd">
        <path d="M431.969144,131.96808 C469.541645,131.96808 500,162.42377 500,199.99627 C500,220.008638 491.038681,232.184517 491.038681,232.184517 C483.649991,242.228017 483.649991,258.668652 491.038681,268.712152 C491.038681,268.712152 500,280.888031 500,300.903064 C500,338.475565 469.541645,368.93392 431.969144,368.93392 C394.396644,368.93392 373.208802,321.597793 373.208802,321.597793 C368.109753,310.216225 353.737526,300.903064 341.263114,300.903064 L341.263114,300.903064 L158.736886,300.903064 C146.262474,300.903064 131.890247,310.216225 126.793863,321.597793 C126.793863,321.597793 105.603356,368.93392 68.0308555,368.93392 C30.4556892,368.93392 0,338.475565 0,300.903064 C0,280.888031 8.95865319,268.714818 8.95865319,268.714818 C16.352674,258.668652 16.352674,242.230683 8.95865319,232.184517 C8.95865319,232.184517 0,220.008638 0,199.998936 C0,162.426435 30.4556892,131.96808 68.0308555,131.96808 C105.603356,131.96808 126.793863,179.298876 126.793863,179.298876 C131.890247,190.683109 146.262474,199.998936 158.736886,199.998936 L158.736886,199.998936 L341.263114,199.998936 C353.737526,199.998936 368.109753,190.683109 373.208802,179.298876 C373.208802,179.298876 394.401975,131.96808 431.969144,131.96808 Z M279.184259,205.569773 C261.939984,205.569773 251.749883,210.831416 245.032892,217.551073 C235.06669,227.514609 232.491844,240.615406 232.491844,248.116046 C232.491844,258.753947 235.17864,271.518895 246.040441,281.261197 C254.884478,289.209636 266.194078,293.35178 282.990554,293.35178 C290.158009,293.35178 298.666198,292.568132 303.146857,290.776934 C305.161954,289.881335 305.385854,289.657436 306.057553,287.530388 C306.505352,286.007871 306.988976,283.536018 307.408116,281.067577 L307.520753,280.395166 C308.093671,276.928878 308.52045,273.641338 308.52045,273.198143 C308.52045,272.302544 308.29655,271.518895 307.736801,271.518895 C307.065102,271.518895 306.841202,271.966694 306.617302,273.198143 C306.281453,275.21324 304.826105,280.139033 302.475158,282.604595 C297.994498,287.194539 291.389458,288.202088 282.990554,288.202088 C259.029288,288.202088 242.569995,268.608199 242.569995,247.220447 C242.569995,235.798897 244.473143,225.835361 252.648147,217.998872 C256.566392,214.189912 263.507282,209.823868 278.40061,209.823868 C288.254862,209.823868 296.875,212.846513 300.79591,216.207674 C303.706606,218.670571 305.497804,223.257849 305.497804,227.626559 C305.497804,229.193857 305.609753,229.977505 306.393402,229.977505 C307.065102,229.977505 307.289001,229.305806 307.400951,227.626559 C307.469365,226.600352 307.49597,223.900812 307.557416,221.113232 L307.575095,220.351991 C307.612412,218.829907 307.662167,217.324507 307.736801,216.093059 C307.9607,212.062865 308.29655,210.719466 308.29655,209.823868 C308.29655,209.152169 308.07265,208.701704 306.841202,208.589754 C303.258807,208.365854 299.676412,207.694155 295.419652,206.910506 C289.93411,205.905623 283.662253,205.569773 279.184259,205.569773 Z M393.029256,213.113594 C392.242942,213.113594 391.683193,214.121142 391.683193,217.927437 L391.683193,217.927437 L391.683193,272.457674 C391.683193,281.077813 391.347343,283.655324 388.887112,284.327024 C387.429098,284.774823 385.637901,284.886773 384.854252,284.886773 L384.921853,284.88626 C384.979691,284.88697 385.036258,284.887306 385.091479,284.887306 C385.651228,284.887306 386.322927,285.111206 386.322927,285.670955 C386.322927,286.096985 385.674416,286.328462 384.870981,286.414744 C385.086253,286.444472 385.34288,286.454071 385.637901,286.454071 C390.11856,286.454071 394.260705,286.118221 395.156303,286.118221 L395.22721,286.118811 C396.244035,286.134404 400.106671,286.454071 405.567639,286.454071 C406.687137,286.454071 407.361502,286.230171 407.361502,285.670422 C407.361502,285.222622 407.025653,284.886773 406.575188,284.886773 C405.679589,284.886773 403.443257,284.774823 401.649394,284.327024 C398.962598,283.655324 398.066999,281.301712 397.8431,273.465223 L397.8431,273.465223 L396.723601,228.565338 C399.429924,231.572363 408.59999,241.222621 418.687553,251.809159 L419.475356,252.635879 C420.001667,253.188156 420.530065,253.742559 421.059773,254.298289 L421.855219,255.132778 L421.855219,255.132778 L422.253497,255.550582 C424.023424,257.397088 425.90343,259.334107 427.809888,261.2819 L428.483717,261.969674 C428.821045,262.313655 429.15889,262.65768 429.496793,263.001309 L430.510215,264.030575 L430.510215,264.030575 L431.18466,264.714137 C432.981027,266.533317 434.757249,268.320491 436.443606,270.009183 L437.690434,271.256197 C443.113215,276.673112 447.358677,280.827045 447.892677,281.301712 C453.380885,286.342121 454.388434,287.12577 455.395983,287.12577 C456.043256,287.12577 456.17075,286.605989 456.179166,280.958339 L456.179632,280.296829 L456.403531,224.535144 C456.403531,218.825701 456.627431,216.919889 459.873976,216.24819 C460.993475,216.02429 461.777124,216.02429 462.224923,216.02429 C462.896622,216.02429 463.344422,215.464541 463.344422,215.128691 C463.344422,214.568942 462.560773,214.456992 461.553224,214.456992 C457.52303,214.456992 454.276484,214.680892 453.15432,214.680892 L453.055979,214.68041 C451.924755,214.670226 448.187053,214.501619 444.310381,214.464277 L443.582479,214.458884 L443.582479,214.458884 L442.854934,214.456992 C441.735436,214.456992 440.951787,214.568942 440.951787,215.128691 C440.951787,215.464541 441.063737,216.02429 441.735436,216.02429 C442.519085,216.02429 444.758082,216.13624 446.549279,216.472089 C449.571925,217.031838 450.13434,219.161551 450.24629,225.318793 L450.24629,225.318793 L451.253838,273.017424 C448.896453,270.574881 441.98641,263.168599 434.440742,255.250324 L433.684202,254.456955 C432.546648,253.264835 431.397731,252.064535 430.25067,250.871078 L429.486382,250.076619 C429.359095,249.944434 429.231867,249.812373 429.104717,249.68046 L428.342887,248.890897 L428.342887,248.890897 L427.962939,248.497742 L427.962939,248.497742 L427.050438,247.557843 L427.050438,247.557843 L426.140656,246.619647 C411.608939,231.625518 398.340157,217.528896 396.835551,216.02429 C395.828002,215.016741 394.148755,213.113594 393.029256,213.113594 Z M64.7955049,214.457792 C60.3175111,214.457792 52.9288212,214.681691 50.7991087,214.681691 L50.740455,214.681378 C50.0571399,214.674961 47.0029669,214.571278 43.7357375,214.507386 L43.1012895,214.495553 C41.8293905,214.473029 40.5464265,214.457792 39.3775589,214.457792 C38.2607259,214.457792 37.810261,214.681691 37.810261,215.241441 C37.810261,215.57729 38.2607259,216.025089 38.5965754,216.025089 C39.4895087,216.025089 41.1687564,216.137039 41.9550708,216.248989 C45.2016163,216.696789 45.7613656,218.266752 45.9852653,221.510632 C46.0113001,221.862102 46.0343077,222.209068 46.0546399,222.571061 L46.066521,222.790216 C46.0723039,222.900852 46.0778523,223.013192 46.0831758,223.127763 L46.0935257,223.360037 C46.1789982,225.36231 46.2012954,228.11108 46.207112,234.197351 L46.2079769,235.306572 C46.2080561,235.433785 46.20813,235.56234 46.208199,235.692257 L46.2089847,238.181992 C46.2090073,238.328947 46.209027,238.47738 46.2090442,238.627312 L46.2091158,260.011824 C46.2090912,260.212431 46.2090544,260.41217 46.2089991,260.611018 L46.2083971,261.793264 C46.2022545,269.601482 46.1469706,275.91885 45.6494157,279.399364 C45.2016163,282.198111 44.9777166,283.991974 43.0745693,284.439773 C42.1789705,284.663673 40.9448567,284.887572 40.0492579,284.887572 C39.4895087,284.887572 39.2682745,285.335372 39.2682745,285.671221 C39.2682745,286.230971 39.8253582,286.45487 40.8329069,286.45487 C43.8582182,286.45487 50.2393594,286.119021 50.575209,286.119021 C50.9110585,286.119021 54.648884,286.307936 58.7637905,286.402394 L59.3994201,286.416142 C59.6120163,286.420451 59.8251963,286.424474 60.038552,286.428171 L60.6787385,286.438251 C61.425286,286.448784 62.1689893,286.45487 62.8923576,286.45487 C64.011856,286.45487 64.4596554,286.119021 64.4596554,285.671221 C64.4596554,285.335372 64.2357557,284.887572 63.6760065,284.887572 C62.7804077,284.887572 60.6533606,284.663673 59.3099625,284.439773 C56.2873166,283.991974 55.7275674,282.198111 55.3890524,279.399364 C54.9910085,275.91885 54.9467814,269.601482 54.9418673,261.793264 L54.941253,220.057949 C54.941253,219.050401 55.1651527,218.378702 55.7275674,218.266752 C56.735116,218.040187 59.5338622,217.592387 61.2131099,217.592387 C63.4521068,217.592387 69.3854487,217.032638 74.5378071,222.182331 C79.7994498,227.334689 80.1352994,233.494596 80.1352994,236.626527 C80.1352994,245.24933 72.5227098,251.966321 61.8848089,251.966321 C59.8697117,251.966321 59.3099625,252.190221 59.3099625,252.97387 C59.3099625,253.421669 59.8697117,253.872134 60.3175111,253.872134 C60.8772603,253.984084 62.556508,253.984084 63.1162573,253.984084 C78.232152,253.984084 88.5342033,244.913481 88.5342033,231.252934 C88.5342033,226.103241 85.847407,221.846481 83.6057446,219.83405 C81.9264969,218.378702 77.4485031,214.457792 64.7955049,214.457792 Z M204.620863,214.457792 C202.982573,214.457792 200.954689,214.48776 198.937273,214.525769 L198.131813,214.54135 C194.919794,214.604971 191.871128,214.681691 190.624467,214.681691 L190.565813,214.681378 C189.860456,214.674754 186.628815,214.564488 183.24432,214.501331 L182.608515,214.490078 C181.441714,214.470595 180.274379,214.457792 179.202917,214.457792 C178.086084,214.457792 177.635619,214.681691 177.635619,215.241441 C177.635619,215.57729 178.086084,216.025089 178.421934,216.025089 C179.314867,216.025089 180.994115,216.137039 181.780429,216.248989 C185.026975,216.696789 185.586724,218.266752 185.810624,221.510632 C185.818434,221.616073 185.825972,221.721109 185.833247,221.826266 L185.847449,222.0369 C185.870545,222.388749 185.890789,222.745859 185.908534,223.127763 L185.918884,223.360037 C186.00268,225.32305 186.025755,228.003572 186.032109,233.843165 L186.032794,234.559236 C186.032895,234.681161 186.032991,234.804388 186.033081,234.928937 L186.033915,236.488247 C186.033966,236.623687 186.034012,236.760527 186.034055,236.898787 L186.03413,261.204873 C186.0301,269.283841 185.984768,275.831837 185.474774,279.399364 C185.026975,282.198111 184.803075,283.991974 182.899927,284.439773 C182.004329,284.663673 180.770215,284.887572 179.874616,284.887572 C179.314867,284.887572 179.093633,285.335372 179.093633,285.671221 C179.093633,286.230971 179.650716,286.45487 180.658265,286.45487 C183.683576,286.45487 190.064718,286.119021 190.400567,286.119021 C190.788086,286.119021 195.704862,286.370535 200.504097,286.438251 L201.14289,286.446152 C201.673958,286.451765 202.201024,286.45487 202.717716,286.45487 C203.837214,286.45487 204.285014,286.119021 204.285014,285.671221 C204.285014,285.335372 204.061114,284.887572 203.501365,284.887572 C202.605766,284.887572 200.478719,284.663673 199.135321,284.439773 C196.112675,283.991974 195.552926,282.198111 195.214411,279.399364 C194.806416,275.831837 194.770149,269.283841 194.766926,261.204873 L194.766611,220.057949 C194.766611,219.050401 194.990511,218.378702 195.552926,218.266752 C196.560474,218.040187 199.35922,217.592387 201.038468,217.592387 C203.277465,217.592387 209.210807,217.032638 214.363165,222.182331 C219.624808,227.334689 219.960658,233.494596 219.960658,236.626527 C219.960658,245.24933 212.348068,251.966321 201.710167,251.966321 C199.69507,251.966321 199.135321,252.190221 199.135321,252.97387 C199.135321,253.421669 199.69507,253.872134 200.142869,253.872134 C200.702619,253.984084 202.381866,253.984084 202.941615,253.984084 C218.05751,253.984084 228.359562,244.913481 228.359562,231.252934 C228.359562,226.103241 225.672765,221.846481 223.431103,219.83405 C221.751855,218.378702 217.273861,214.457792 204.620863,214.457792 Z M346.799301,212.666328 C346.127602,212.666328 345.677137,213.226077 344.445688,216.360672 L344.445688,216.360672 L321.269405,275.931318 C319.366257,280.742496 317.46311,284.103657 312.982451,284.663406 C312.198802,284.775356 310.743454,284.887306 310.071755,284.887306 C309.623955,284.887306 309.176156,285.223155 309.176156,285.670955 C309.176156,286.230704 309.847855,286.454604 311.079303,286.454604 C311.623924,286.454604 312.184949,286.448471 312.750484,286.437862 L313.430531,286.423089 C316.83398,286.339546 320.228574,286.118754 321.045505,286.118754 C322.165003,286.118754 327.538596,286.454604 329.889543,286.454604 C330.785142,286.454604 331.344891,286.230704 331.344891,285.670955 C331.344891,285.223155 331.120991,284.887306 330.337342,284.887306 L330.337342,284.887306 L329.441743,284.887306 C327.762496,284.887306 326.083248,284.215607 326.083248,282.309794 C326.083248,280.630546 326.642997,278.279599 327.538596,275.931318 L327.538596,275.931318 L333.138754,260.700808 C333.362654,260.141059 333.698503,259.917159 334.146302,259.917159 L334.146302,259.917159 L356.874787,259.917159 C357.434536,259.917159 357.546486,260.029109 357.770386,260.476908 L357.770386,260.476908 L366.617089,282.309794 C367.288788,283.879757 366.281239,284.663406 365.72149,284.887306 C365.273691,285.111206 365.049791,285.111206 365.049791,285.559005 C365.049791,286.118754 366.617089,286.118754 368.520236,286.230704 C368.778033,286.239153 369.036463,286.247283 369.295191,286.255107 L370.071928,286.277669 C375.122135,286.418495 380.157283,286.447234 382.680518,286.4531 L383.048554,286.453834 C383.106478,286.45393 383.162666,286.454014 383.217077,286.454088 L384.08393,286.454604 C384.351368,286.454604 384.618806,286.441826 384.870981,286.414744 C384.350543,286.340519 384.070603,286.14544 384.070603,285.670422 C384.070603,285.222622 384.406453,284.886773 384.854252,284.886773 L384.921853,284.88626 C383.924402,284.874026 382.548818,284.750813 381.173234,284.327557 C379.046187,283.655858 376.356726,282.421744 372.77433,273.913555 C370.416667,268.280319 366.577199,258.866556 362.663924,249.238668 L362.06149,247.756246 C361.96105,247.509055 361.86061,247.261842 361.760192,247.01467 L361.158147,245.532591 C355.545142,231.713265 350.152145,218.395174 349.147582,216.136773 C348.142699,214.009726 347.806849,212.666328 346.799301,212.666328 Z M167.798959,214.456992 C164.888263,214.456992 158.619072,214.680892 158.056657,214.680892 L158.021016,214.680604 C157.574376,214.674705 154.722003,214.579308 151.605029,214.51504 L150.999015,214.503022 C149.579955,214.476039 148.135102,214.456992 146.861673,214.456992 C145.742174,214.456992 145.294375,214.680892 145.294375,215.240641 C145.294375,215.57649 145.630224,216.02429 146.078024,216.02429 C146.973622,216.02429 148.65287,216.13624 149.436519,216.24819 C152.683065,216.695989 153.130864,218.265952 153.354764,221.512498 C153.358669,221.617939 153.362574,221.723244 153.366475,221.828921 L153.374268,222.040923 L153.374268,222.040923 L153.38204,222.254822 C153.384626,222.326538 153.387207,222.398721 153.389782,222.471522 L153.397487,222.691928 C153.485838,225.251365 153.564971,228.725243 153.577067,239.30164 L153.577948,240.239379 C153.578066,240.398703 153.57817,240.559556 153.578259,240.721958 L153.578663,244.240982 C153.578663,244.800731 153.354764,244.800731 153.018914,244.800731 L111.849859,244.800477 C111.556353,244.797419 111.365575,244.757674 111.365575,244.240982 L111.365575,244.240982 L111.365962,236.295572 C111.365991,236.162254 111.366023,236.030295 111.366058,235.899677 L111.366983,233.689331 C111.367053,233.574128 111.367127,233.460154 111.367205,233.347389 L111.367716,232.685159 C111.367809,232.577156 111.367907,232.470324 111.368008,232.364645 L111.368668,231.744253 C111.368787,231.64311 111.368911,231.543082 111.369039,231.44415 L111.369868,230.863562 C111.376676,226.510929 111.394286,224.398219 111.439828,222.691928 L111.445928,222.471522 C111.455319,222.143919 111.465809,221.828821 111.477525,221.512498 C111.701424,218.154002 112.263839,216.807939 114.94797,216.24819 C116.070134,216.02429 116.741833,216.02429 117.413532,216.02429 C117.749382,216.02429 118.197181,215.57649 118.197181,215.240641 C118.197181,214.680892 117.749382,214.456992 116.629883,214.456992 C113.607237,214.456992 107.33538,214.680892 106.887581,214.680892 L106.84523,214.680604 C106.067392,214.67166 99.9652933,214.456992 95.5779811,214.456992 C94.4584826,214.456992 94.0133487,214.680892 94.0133487,215.240641 C94.0133487,215.57649 94.4584826,216.02429 94.7943321,216.02429 C95.6899309,216.02429 97.3691786,216.13624 98.155493,216.24819 C101.402039,216.695989 101.961788,218.265952 102.185687,221.512498 C102.193498,221.617939 102.201036,221.722971 102.208311,221.828123 L102.222513,222.03874 L102.222513,222.03874 L102.236031,222.250613 L102.236031,222.250613 L102.248882,222.464679 C102.255143,222.572416 102.26116,222.681328 102.266943,222.791941 L102.278199,223.015593 C102.374915,225.013989 102.400438,227.653295 102.407173,233.842698 L102.407858,234.558708 C102.407959,234.680622 102.408055,234.80384 102.408145,234.92838 L102.408979,236.487589 C102.40903,236.623021 102.409076,236.759854 102.409119,236.898107 L102.409194,261.204074 C102.405164,269.283041 102.359832,275.831037 101.849838,279.398565 C101.402039,282.197311 101.178139,283.991174 99.2749915,284.438973 C98.3793927,284.662873 97.1452789,284.886773 96.2496801,284.886773 C95.6899309,284.886773 95.4660312,285.334572 95.4660312,285.670422 C95.4660312,286.230171 96.0257805,286.454071 97.0333291,286.454071 C100.05864,286.454071 106.327832,286.118221 106.887581,286.118221 L106.91983,286.118589 C107.460465,286.128821 111.717591,286.349724 116.208126,286.427371 L116.850843,286.437451 L116.850843,286.437451 L117.494479,286.445352 C118.030598,286.450966 118.565324,286.454071 119.09278,286.454071 C120.212278,286.454071 120.660078,286.118221 120.660078,285.670422 C120.660078,285.334572 120.436178,284.886773 119.876429,284.886773 C118.98083,284.886773 116.853783,284.662873 115.395769,284.438973 C112.487739,283.991174 112.151889,282.197311 111.813374,279.398565 C111.405379,275.831037 111.369113,269.471118 111.365889,261.423571 L111.365575,249.50529 C111.365575,249.057491 111.589475,248.945541 111.925324,248.945541 L111.925324,248.945541 L153.018914,248.945541 C153.354764,248.945541 153.578663,249.057491 153.578663,249.50529 L153.578663,249.50529 L153.578006,262.071476 C153.572881,269.790053 153.527777,275.813928 153.130864,279.28928 C152.795015,282.085361 152.459165,283.991174 150.444068,284.438973 C149.548469,284.662873 148.42897,284.886773 147.533372,284.886773 C146.973622,284.886773 146.749723,285.334572 146.749723,285.670422 C146.749723,286.230171 147.197522,286.454071 148.317021,286.454071 C149.243151,286.454071 150.520628,286.420069 151.846532,286.373704 L152.416858,286.353139 C155.083973,286.254226 157.771694,286.118221 158.056657,286.118221 L158.097197,286.118619 C158.869481,286.131521 164.995735,286.454071 170.261856,286.454071 C171.381354,286.454071 171.941104,286.118221 171.941104,285.670422 C171.941104,285.334572 171.717204,284.886773 171.045505,284.886773 C170.261856,284.886773 168.022859,284.662873 166.679461,284.438973 L166.43399,284.398548 C163.64429,283.89074 163.423586,282.119568 163.097066,279.398565 C162.669169,275.657011 162.547931,268.63712 162.538,260.011025 L162.537925,236.487589 C162.537976,236.352157 162.53803,236.218125 162.53809,236.085474 L162.538758,234.92838 C162.538849,234.80384 162.538944,234.680622 162.539046,234.558708 L162.539731,233.842698 C162.547102,227.069389 162.576971,224.547603 162.698022,222.464679 L162.710873,222.250613 L162.710873,222.250613 L162.724391,222.03874 L162.724391,222.03874 L162.738593,221.828123 C162.741018,221.793072 162.743472,221.758035 162.745956,221.722991 L162.761216,221.512498 C162.985116,218.154002 163.544865,216.807939 166.119712,216.24819 C167.175239,216.056276 167.737273,216.028859 168.299307,216.024943 L168.582608,216.02429 C169.030408,216.02429 169.478207,215.57649 169.478207,215.240641 C169.478207,214.680892 168.918458,214.456992 167.798959,214.456992 Z M344.333738,229.23757 C344.893488,227.782222 345.453237,227.782222 346.012986,229.23757 L346.012986,229.23757 L355.755288,255.327215 C355.867238,255.775015 355.867238,255.998915 355.419439,255.998915 L355.419439,255.998915 L335.489701,255.998915 C335.151186,255.998915 335.039236,255.775015 335.151186,255.327215 L335.151186,255.327215 Z" id="Combined-Shape" fill="#000000"></path>
    </g>
</svg>