<?xml version="1.0" encoding="UTF-8"?>
<svg
  width="500px"
  height="500px"
  viewBox="0 0 500 500"
  version="1.1"
  xmlns="http://www.w3.org/2000/svg"
  xmlns:xlink="http://www.w3.org/1999/xlink"
>
  <title>Lume</title>
  <g id="Lume" stroke="none" stroke-width="1" fill="none" fill-rule="evenodd">
    <path
      d="M91.0714591,169.552762 C118.920603,169.552762 133.433056,190.151014 133.433056,223.853365 C133.433056,263.641514 113.304256,290.323431 71.4099763,290.323431 C66.7303983,290.323431 62.9854555,290.086571 59.4752386,289.382394 L59.4752386,289.382394 L59.4752386,330.913915 L23.6688916,330.913915 L23.6688916,199.625399 L0,199.625399 L0,170.664509 L56.4344731,170.664509 L56.4344731,187.991537 C63.0537394,176.308596 74.3589853,169.552762 91.0714591,169.552762 Z M382.146332,304.087749 L382.146332,320.298763 C382.146332,323.066393 382.991345,324.56437 385.951023,324.56437 C388.833882,324.56437 389.753581,323.335261 389.753581,320.106715 L389.753581,304.087749 L396.823094,304.087749 L396.823094,319.724752 C396.823094,327.253047 392.480667,330.558413 385.528517,330.558413 C377.189351,330.558413 375,326.141301 375,320.64445 L375,304.087749 L382.146332,304.087749 Z M467.338978,303.893567 C469.029004,303.893567 470.836392,304.124025 472.334369,304.510255 L471.527766,310.96308 C470.298657,310.617393 468.798546,310.386935 467.338978,310.386935 C463.958927,310.386935 461.844262,312.729925 461.844262,316.918712 C461.844262,321.414777 463.572697,323.834587 467.607846,323.834587 C468.721726,323.834587 470.450161,323.563585 471.527766,323.104803 L472.370645,329.482942 C470.567524,330.056953 468.33763,330.366364 466.263507,330.366364 C456.082811,330.366364 453.968146,323.335261 453.968146,318.109412 C453.968146,309.465103 458.846174,303.893567 467.338978,303.893567 Z M411.798597,303.893994 C417.408542,303.893994 421.019051,306.044935 421.019051,310.57941 C421.019051,312.88399 419.672579,314.958112 417.67741,315.995173 L417.67741,316.112536 C419.905171,316.880729 421.403148,319.223719 421.403148,321.722482 C421.403148,326.408461 417.828915,330.097923 410.413715,330.097923 C408.838918,330.097923 405.842964,330.021104 401.462128,330.021104 L401.462128,304.124452 C404.076119,303.970813 408.570051,303.893994 411.798597,303.893994 Z M490.886239,304.086042 L499.761007,330.021104 L491.96171,330.021104 L490.617371,325.793907 L482.626026,325.793907 L481.320098,330.021104 L474.248451,330.021104 L482.700712,304.086042 L490.886239,304.086042 Z M432.576094,304.087536 L432.576094,323.642325 L439.722426,323.642325 L439.722426,330.020464 L425.429762,330.020464 L425.429762,304.087536 L432.576094,304.087536 Z M361.059424,303.8925 C367.975298,303.8925 371.777856,306.852178 371.777856,312.577353 C371.777856,317.611153 368.397805,322.066675 361.445655,322.066675 L361.304374,322.066253 C361.098308,322.064778 360.756414,322.058139 360.36805,322.028265 L360.36805,330.01961 L353.221718,330.01961 L353.221718,304.086682 C355.603117,303.969319 358.217109,303.8925 361.059424,303.8925 Z M450.129313,304.086042 L450.129313,330.01897 L442.98298,330.01897 L442.98298,304.086042 L450.129313,304.086042 Z M410.452124,319.415768 L410.251541,319.415955 C409.819432,319.416894 408.960549,319.422525 408.60846,319.456311 L408.60846,324.1807 C409.07151,324.21911 409.83757,324.25752 410.452124,324.25752 C412.372608,324.25752 413.680671,323.412507 413.680671,321.797167 C413.680671,320.452829 412.682019,319.415768 410.452124,319.415768 Z M486.582222,312.425208 L486.505403,312.425208 C486.274945,313.923185 485.773485,315.649486 485.237884,317.341645 L484.352328,320.183961 L488.809983,320.183961 L487.772922,316.919139 C487.312006,315.421162 486.85109,314.03628 486.582222,312.425208 Z M361.059424,309.696628 C360.944195,309.696628 360.675327,309.696628 360.36805,309.735037 L360.36805,316.072633 C360.636918,316.113176 360.790556,316.113176 360.905785,316.113176 C362.751583,316.113176 364.401065,314.958752 364.401065,312.807811 C364.401065,311.117785 363.517643,309.696628 361.059424,309.696628 Z M410.646307,309.657578 C409.83757,309.657578 409.223015,309.695987 408.60846,309.734397 L408.60846,314.115233 C409.030967,314.151509 409.530292,314.151509 410.144847,314.151509 C412.372608,314.151509 413.411803,313.191267 413.411803,311.69329 C413.411803,310.348952 412.336332,309.657578 410.646307,309.657578 Z M390.368135,294.673112 L392.864764,299.474321 L383.989996,302.894915 L381.877465,298.859766 L390.368135,294.673112 Z M244.454071,169.086085 C284.472678,169.086085 295.707506,184.067989 295.707506,210.745638 L295.707506,210.745638 L295.707506,273.746031 L342.140528,205.573136 L342.140528,259.197302 L372.435088,259.193034 C372.435088,271.435049 376.858601,281.368216 384.593882,288.066436 L384.593882,288.066436 L259.835009,288.03016 L259.832875,270.89518 C254.214394,283.064643 244.454071,291.021847 228.302805,291.021847 C206.067234,291.021847 194.365088,277.917748 194.365088,259.193034 C194.365088,229.705078 222.921183,215.662076 259.899025,215.662076 C259.899025,203.338974 258.123645,196.94163 239.068181,196.94163 C232.17578,196.94163 221.715547,199.380644 211.632368,202.925003 L211.632368,202.925003 L211.632368,171.535768 C221.600318,169.726246 233.4497,169.086085 244.454071,169.086085 Z M429.025333,169.086085 C469.043941,169.086085 480.278769,184.067989 480.278769,210.745638 L480.278769,210.745638 L480.278769,259.197302 L500,259.193034 L500,288.066436 L444.406272,288.03016 L444.404138,270.89518 C438.785657,283.064643 429.025333,291.021847 412.874067,291.021847 C390.639137,291.021847 378.936991,277.917748 378.936991,259.193034 C378.936991,229.705078 407.492446,215.662076 444.470288,215.662076 C444.470288,203.338974 442.694908,196.94163 423.639444,196.94163 C412.238174,196.94163 400.38239,199.771142 389.704502,205.366151 L389.704502,205.366151 L413.561174,170.112476 C417.067123,169.600347 423.993667,169.086085 429.025333,169.086085 Z M204.155874,169.267788 L204.661013,169.274292 L204.661013,204.660266 C185.238524,200.215414 175.175191,211.450242 175.175191,240.470881 L175.175191,240.470881 L175.175191,288.154351 L139.368844,288.154351 L139.368844,170.718922 L171.551879,170.718922 L171.428114,192.725529 C177.30266,179.405909 187.758625,168.949944 204.661013,169.274292 Z M259.899025,238.364324 C234.158145,238.364324 228.068079,245.382624 228.068079,253.811413 C228.068079,259.658218 232.284607,263.87688 239.770225,263.87688 C251.70923,263.87688 259.899025,253.111503 259.899025,241.637682 L259.899025,241.637682 Z M444.470288,238.364324 C418.729408,238.364324 412.639342,245.382624 412.639342,253.811413 C412.639342,259.658218 416.85587,263.87688 424.341488,263.87688 C436.280493,263.87688 444.470288,253.111503 444.470288,241.637682 L444.470288,241.637682 Z M79.8366309,199.042852 C67.6671674,199.042852 59.4752386,213.085854 59.4752386,232.512611 L59.4752386,232.512611 L59.4752386,261.063798 C62.9854555,262.002701 66.7303983,262.470019 71.644702,262.470019 C85.452978,262.470019 95.9814951,253.573913 95.9814951,227.59404 C95.9814951,208.169417 90.8345994,199.042852 79.8366309,199.042852 Z M405.076905,170.696303 L349.109749,253.061571 L349.109749,199.625186 L301.498831,199.625186 L301.498831,170.696303 L405.076905,170.696303 Z"
      id="Combined-Shape"
      fill="#000000"
    ></path>
  </g>
</svg>
