<?xml version="1.0" encoding="UTF-8"?>
<svg
  width="500px"
  height="500px"
  viewBox="0 0 500 500"
  version="1.1"
  xmlns="http://www.w3.org/2000/svg"
  xmlns:xlink="http://www.w3.org/1999/xlink"
>
  <title>Lume</title>
  <g id="Lume" stroke="none" stroke-width="1" fill="none" fill-rule="evenodd">
    <path
      d="M394.53415,229.572821 L394.53415,242.741456 L420.100698,242.741456 L420.100698,252.451065 L420.293685,252.451065 C421.350814,248.701944 424.812298,241.684326 432.887045,241.684326 C435.285925,241.684326 437.139409,242.354209 438.497912,243.404852 C440.853791,242.207751 443.902679,241.492568 447.611871,241.492568 C459.43451,241.492568 463.18486,247.932452 463.18486,254.758311 L463.18486,278.693683 C463.18486,282.345696 464.433747,283.404054 466.548006,283.404054 C467.332805,283.404054 468.248402,283.207648 469.142271,282.853575 L469.142889,270.521828 L470.198789,270.521828 C471.929531,276.579425 475.679882,283.980559 485.388261,283.980559 C489.522128,283.980559 493.27002,281.577433 493.27002,276.001691 C493.27002,271.099562 490.290391,269.657687 487.023124,268.504678 L479.524882,265.908566 C475.582773,264.563799 470.00826,262.64007 470.00826,254.180577 C470.00826,246.971202 475.870411,241.492568 483.850507,241.492568 C489.426249,241.492568 490.387499,243.510947 493.078262,243.510947 C493.943633,243.510947 494.328379,243.222081 494.617245,242.741456 L495.673145,242.741456 L495.673145,253.699952 L494.617245,253.699952 C492.790624,247.932452 490.387499,242.838564 483.850507,242.838564 C477.697032,242.838564 474.142127,245.818193 474.142127,250.431456 C474.142127,254.565323 477.121757,256.296065 482.69627,258.025578 L489.712658,260.332824 C495.673145,262.352432 500,265.812687 500,271.676066 C500,278.693683 494.424258,285.326555 484.715878,285.326555 C479.044257,285.326555 475.391015,282.634563 472.507265,282.634563 C472.154527,282.634563 471.859366,282.674808 471.609074,282.745445 L471.739002,282.923429 C471.292748,283.264584 470.796229,283.598676 470.243581,283.904106 C470.22844,283.929143 470.213546,283.954852 470.198789,283.980559 L470.102026,283.981041 C468.653753,284.754968 466.829699,285.326555 464.529627,285.326555 C458.37861,285.326555 456.070134,282.538684 455.011776,277.828312 L454.821247,277.828312 C453.859997,280.231438 451.64863,285.326555 442.130779,285.326555 C431.462378,285.326555 429.731637,279.942571 429.731637,276.001691 C429.731637,268.241058 435.54709,266.508107 441.695759,264.710599 L442.799409,264.38667 C442.983556,264.332135 443.167708,264.277218 443.35172,264.221758 L443.903187,264.053583 C444.178563,263.968518 444.453296,263.881866 444.726892,263.793078 C453.283493,261.006436 455.204763,260.428703 455.204763,252.739931 C455.204763,246.587685 454.146405,242.838564 447.8024,242.838564 C443.573883,242.838564 440.498375,244.27921 440.498375,247.547706 C440.498375,249.759073 441.074879,252.066319 441.074879,253.123448 C441.074879,254.85419 439.727654,256.296065 437.324529,256.296065 C433.094783,256.296065 432.615387,254.565323 432.615387,252.162198 C432.615387,250.743733 432.940081,249.367401 433.580449,248.100853 C433.627582,247.706603 433.655307,247.242464 433.655307,246.682335 C433.655307,244.761064 432.502299,243.606827 430.290932,243.606827 C426.254173,243.606827 420.293685,249.950831 420.293685,260.62169 L420.293685,282.634563 L428.657298,282.634563 L428.657298,283.980559 L404.794662,283.980905 C403.357169,284.802381 401.514378,285.326555 399.147413,285.326555 C389.534912,285.326555 386.266416,281.385675 386.266416,274.656925 L386.266416,244.087452 L378.864053,244.087452 L378.864053,242.741456 L386.266416,242.741456 L386.266416,230.342313 C387.226437,230.72583 387.80417,231.014697 390.015537,231.014697 C391.938037,231.014697 393.282804,230.534072 394.53415,229.572821 Z M283.50608,241.492568 C289.081822,241.492568 290.041843,243.510947 292.733835,243.510947 C293.599205,243.510947 293.983951,243.222081 294.272818,242.741456 L295.329947,242.741456 L295.329947,253.699952 L294.272818,253.699952 C292.446197,247.932452 290.041843,242.838564 283.50608,242.838564 C277.353833,242.838564 273.7977,245.818193 273.7977,250.431456 C273.7977,254.565323 276.777329,256.296065 282.353071,258.025578 L289.369459,260.332824 C295.329947,262.352432 299.656802,265.812687 299.656802,271.676066 C299.656802,278.693683 294.07983,285.326555 284.371451,285.326555 C278.699829,285.326555 275.047817,282.634563 272.162837,282.634563 C271.8104,282.634563 271.515393,282.674808 271.265197,282.745445 L271.395804,282.923429 C270.950031,283.263959 270.45436,283.597452 269.902885,283.902429 C269.887057,283.927808 269.871864,283.954184 269.85682,283.980559 L269.758287,283.981041 C268.309946,284.754968 266.486501,285.326555 264.186428,285.326555 C258.034182,285.326555 255.726936,282.538684 254.669807,277.828312 L254.476819,277.828312 C253.516799,280.231438 251.305432,285.326555 241.78881,285.326555 C231.11918,285.326555 229.388438,279.942571 229.388438,276.001691 C229.388438,268.241058 235.204798,266.508107 241.352944,264.710599 L242.456485,264.38667 C242.640611,264.332135 242.824741,264.277218 243.008728,264.221758 L243.560119,264.053583 C243.835456,263.968518 244.110145,263.881866 244.383694,263.793078 C252.939065,261.006436 254.861565,260.428703 254.861565,252.739931 C254.861565,246.587685 253.804436,242.838564 247.460431,242.838564 C243.230685,242.838564 240.155177,244.27921 240.155177,247.547706 C240.155177,249.759073 240.731681,252.066319 240.731681,253.123448 C240.731681,254.85419 239.385685,256.296065 236.98256,256.296065 C232.752814,256.296065 232.272189,254.565323 232.272189,252.162198 C232.272189,246.490577 237.463185,241.492568 247.267444,241.492568 C259.091311,241.492568 262.840432,247.932452 262.840432,254.758311 L262.840432,278.693683 C262.840432,282.345696 264.090549,283.404054 266.204808,283.404054 C266.989607,283.404054 267.905204,283.207648 268.798829,282.853575 L268.798462,270.521828 L269.85682,270.521828 C271.586333,276.579425 275.335454,283.980559 285.043834,283.980559 C289.177701,283.980559 292.926822,281.577433 292.926822,276.001691 C292.926822,271.099562 289.947193,269.657687 286.678697,268.504678 L279.180454,265.908566 C275.239575,264.563799 269.663833,262.64007 269.663833,254.180577 C269.663833,246.971202 275.528442,241.492568 283.50608,241.492568 Z M325.340125,215.538816 L325.340125,216.883583 L314.669266,216.883583 L314.669266,282.634563 L320.419557,282.634563 C331.665691,282.634563 337.819167,275.040441 340.702917,262.928936 L340.714047,262.92858 C341.080621,251.837302 350.458063,241.492568 362.331044,241.492568 C369.445769,241.492568 380.01952,246.10706 380.01952,260.141065 L350.411297,260.141065 C350.411297,261.389953 350.315418,262.64007 350.315418,264.658449 C350.315418,265.364047 350.324565,266.084686 350.347714,266.813086 L350.367778,267.360728 C350.698967,275.319336 352.829718,283.980559 363.004656,283.980559 C374.347899,283.980559 376.845674,276.194679 377.809382,273.117941 L379.248799,273.406808 C378.383428,276.194679 375.789774,285.326555 362.908777,285.326555 C352.585139,285.326555 344.545756,279.769489 341.760449,270.832256 L341.760046,283.980559 L294.385906,283.980559 L294.385906,282.634563 L305.056765,282.634563 L305.056765,216.883583 L294.385906,216.883583 L294.385906,215.538816 L325.340125,215.538816 Z M224.006913,214.673445 L224.006913,282.634563 L231.408047,282.634563 L231.408047,283.980559 L215.932167,283.980559 L215.932167,275.616946 L215.740408,275.616946 C214.777929,278.597804 211.7983,285.326555 203.05117,285.326555 C191.706698,285.326555 182.094198,274.848683 182.094198,263.120695 C182.094198,251.585694 191.419061,241.492568 202.377557,241.492568 C209.395175,241.492568 213.816679,245.433448 215.547421,250.431456 L215.740408,250.431456 L215.740408,216.018212 L208.338045,216.018212 L208.338045,214.673445 L224.006913,214.673445 Z M28.7416229,215.24995 C43.3533614,215.24995 54.2159789,222.555204 54.2159789,233.513701 C54.2159789,237.063519 53.0033554,240.159846 50.9083851,242.742291 L62.3128512,242.741456 L62.3128512,252.451065 L62.5058388,252.451065 C63.5641972,248.701944 67.0244516,241.684326 75.0991981,241.684326 C77.514035,241.684326 79.3757664,242.362726 80.7370435,243.425893 C83.0988442,242.216681 86.162282,241.492568 89.8940904,241.492568 C101.717958,241.492568 105.467079,247.932452 105.467079,254.758311 L105.467079,278.693683 C105.467079,282.345696 106.717196,283.404054 108.831454,283.404054 C109.544657,283.404054 110.365883,283.241849 111.180472,282.946513 L134.496339,244.087452 L125.463996,244.088079 C119.576331,244.102935 117.040618,244.469374 113.443488,253.508194 L112.675225,253.508194 L114.019992,242.741456 L144.492357,242.741456 L120.558213,282.634563 L134.111594,282.634563 C139.993865,282.634563 142.08944,278.551226 143.462042,274.610236 L143.620374,274.147502 C143.931106,273.224367 144.208464,272.318286 144.492357,271.484308 L144.695847,271.48346 C146.581876,267.351537 151.24405,266.03834 156.059558,264.63005 L156.887718,264.38667 C157.53225,264.195797 158.176838,264.000249 158.815229,263.793078 C167.3706,261.006436 169.2931,260.428703 169.2931,252.739931 C169.2931,246.587685 168.235971,242.838564 161.891966,242.838564 C157.660991,242.838564 154.585482,244.27921 154.585482,247.547706 C154.585482,249.759073 155.163216,252.066319 155.163216,253.123448 C155.163216,254.85419 153.81722,256.296065 151.414095,256.296065 C147.184349,256.296065 146.702494,254.565323 146.702494,252.162198 C146.702494,246.490577 151.89472,241.492568 161.698979,241.492568 C173.522846,241.492568 177.271967,247.932452 177.271967,254.758311 L177.271967,278.693683 C177.271967,282.345696 178.522084,283.404054 180.636343,283.404054 C181.982339,283.404054 183.711851,282.826321 185.057847,281.8663 L185.827339,282.923429 C184.192476,284.172317 181.886459,285.326555 178.617963,285.326555 C172.465717,285.326555 170.158471,282.538684 169.101342,277.828312 L168.908354,277.828312 C167.947104,280.231438 165.736967,285.326555 156.220345,285.326555 C148.671413,285.326555 145.596482,282.631447 144.443533,279.659164 L144.011732,283.980559 L112.384526,283.981259 C110.936251,284.755075 109.112932,285.326555 106.813075,285.326555 C100.660829,285.326555 98.3535827,282.538684 97.2964535,277.828312 L97.1034659,277.828312 C96.1422158,280.231438 93.9320782,285.326555 84.4154567,285.326555 C73.7458268,285.326555 72.015085,279.942571 72.015085,276.001691 C72.015085,266.966924 79.8980731,266.101553 87.0103402,263.793078 C95.5657116,261.006436 97.4882118,260.428703 97.4882118,252.739931 C97.4882118,246.587685 96.4310825,242.838564 90.0870779,242.838564 C85.8573318,242.838564 82.7805941,244.27921 82.7805941,247.547706 C82.7805941,249.759073 83.3583275,252.066319 83.3583275,253.123448 C83.3583275,254.85419 82.0123315,256.296065 79.6092064,256.296065 C75.3794602,256.296065 74.8988352,254.565323 74.8988352,252.162198 C74.8988352,250.798863 75.19878,249.474451 75.7906453,248.249024 C75.8381412,247.867195 75.8674606,247.367367 75.8674606,246.682335 C75.8674606,244.761064 74.7144522,243.606827 72.5030853,243.606827 C68.4650975,243.606827 62.5058388,249.950831 62.5058388,260.62169 L62.5058388,282.634563 L70.8682227,282.634563 L70.8682227,283.980559 L46.836971,283.980559 L46.836971,282.634563 L54.2393341,282.634563 L54.2393341,244.087452 L49.6916527,244.088116 C44.7856409,248.979779 36.4478783,251.682802 27.4915061,251.682802 C25.7619935,251.682802 22.3976183,251.296827 20.2821306,250.91331 L20.2821306,282.634563 L30.9529897,282.634563 L30.9529897,283.980559 L2.84217094e-14,283.980559 L2.84217094e-14,282.634563 L10.6696299,282.634563 L10.6696299,216.883583 L2.84217094e-14,216.883583 L2.84217094e-14,215.538816 L18.071993,215.538816 C19.8986139,215.538816 21.6281265,215.441708 23.4547475,215.345829 C25.1854893,215.345829 27.0108811,215.24995 28.7416229,215.24995 Z M412.025951,244.087452 L394.53415,244.087452 L394.53415,275.522296 C394.53415,282.731671 397.704309,283.980559 400.300421,283.980559 C404.819034,283.980559 407.605676,280.135558 408.375168,275.905812 L409.721164,276.386437 C409.349496,278.189842 408.539249,280.724835 406.579739,282.635089 L412.025951,282.634563 L412.025951,244.087452 Z M202.762303,242.838564 C193.822186,242.838564 191.706698,250.239698 191.706698,261.967686 C191.706698,275.329308 192.572069,283.980559 203.147049,283.980559 C213.816679,283.980559 215.740408,273.598566 215.740408,265.139074 C215.740408,255.237707 215.066796,250.720323 212.374804,247.260069 C210.452304,244.761064 207.472674,242.838564 202.762303,242.838564 Z M454.917126,260.428703 L454.724138,260.428703 C454.628259,261.198195 453.474022,262.160674 451.552751,262.928936 L444.343375,265.812687 C440.305387,267.44632 437.999371,270.427179 437.999371,274.944562 C437.999371,278.885442 439.152379,283.404054 445.111638,283.404054 C453.667009,283.404054 454.917126,275.233429 454.917126,270.042433 L454.917126,260.428703 Z M97.2005743,260.428703 L97.0075867,260.428703 C96.9117076,261.198195 95.75747,262.160674 93.8361991,262.928936 L86.6268235,265.812687 C82.5888357,267.44632 80.2815897,270.427179 80.2815897,274.944562 C80.2815897,278.885442 81.4358273,283.404054 87.3950861,283.404054 C95.9504575,283.404054 97.2005743,275.233429 97.2005743,270.042433 L97.2005743,260.428703 Z M169.004233,260.428703 L168.812475,260.428703 C168.716596,261.198195 167.562358,262.160674 165.641087,262.928936 L158.431712,265.812687 C154.393724,267.44632 152.086478,270.427179 152.086478,274.944562 C152.086478,278.885442 153.239486,283.404054 159.199974,283.404054 C167.755346,283.404054 169.004233,275.233429 169.004233,270.042433 L169.004233,260.428703 Z M254.573928,260.428703 L254.382169,260.428703 C254.285061,261.198195 253.132053,262.160674 251.209553,262.928936 L244.000177,265.812687 C239.962189,267.44632 237.654943,270.427179 237.654943,274.944562 C237.654943,278.885442 238.809181,283.404054 244.76844,283.404054 C253.212702,283.404054 254.540225,275.444275 254.573282,270.246163 L254.573928,260.428703 Z M361.947527,242.838564 C353.296276,242.838564 351.08368,250.431456 350.507176,258.795069 L370.214032,258.795069 C370.40579,256.968448 370.40579,255.526573 370.40579,253.89294 C370.40579,245.241689 366.945536,242.838564 361.947527,242.838564 Z M25.8578727,216.595946 C23.4547475,216.595946 21.3392598,216.787704 20.2821306,216.883583 L20.2821306,249.567315 C22.7823641,250.04794 25.9537518,250.335577 28.0692395,250.335577 C37.4899819,250.335577 43.1616031,244.761064 43.1616031,233.513701 C43.1616031,220.345067 38.2582444,216.595946 25.8578727,216.595946 Z"
      id="Combined-Shape"
      fill="#000000"
    ></path>
  </g>
</svg>
