<?xml version="1.0" encoding="UTF-8"?>
<svg width="500px" height="500px" viewBox="0 0 500 500" version="1.1" xmlns="http://www.w3.org/2000/svg" xmlns:xlink="http://www.w3.org/1999/xlink">
    <title>Lume</title>
    <g id="Lume" stroke="none" stroke-width="1" fill="none" fill-rule="evenodd">
        <polygon id="Fill-2" fill="#000000" points="207.471533 0 -2.84217094e-14 207.471533 -2.84217094e-14 498.821447 498.815973 0"></polygon>
        <path d="M100.936536,334.039095 C112.618853,345.725062 121.885146,366.067841 103.958391,384.001895 C100.330705,387.629581 95.7942723,389.549262 89.652023,388.640516 L99.9219514,398.917744 C102.845268,401.837411 104.863488,401.636683 106.472954,400.432321 L111.005737,397.103901 L117.053097,403.147611 L93.6775138,426.519545 L92.3673132,425.205695 C87.2359986,417.249602 81.5900926,408.994244 71.6157805,399.016282 L44.3168946,371.717397 C40.5906696,367.983872 38.1709957,367.987522 35.1491404,370.206469 L31.0141621,373.319564 L24.6711856,366.983886 L45.3205301,346.327243 C47.539477,347.732333 49.9555013,349.352748 53.0758954,351.867311 C51.2657019,345.013393 51.8715328,336.758034 58.6232626,330.006305 C69.9990149,318.623253 88.2396341,321.345843 100.936536,334.039095 Z M62.2509488,345.922139 C57.8167046,350.352734 60.6414824,359.629975 68.6961135,367.684607 C79.4806333,378.465477 87.5352645,381.085878 94.1848059,374.436336 C98.3197842,370.305008 98.9183159,363.250362 88.5389,352.878246 L88.6447379,352.768758 C77.0573097,341.192279 69.3019444,338.871143 62.2509488,345.922139 Z M122.118719,272.879371 C121.363256,279.302639 122.326746,286.145608 125.399695,292.838945 L125.399695,292.838945 L122.520174,295.725765 C119.596857,295.225772 117.279371,295.930142 115.469178,297.740335 C113.458257,299.758555 112.545861,302.878949 113.757523,307.116116 C114.764808,310.740152 115.669905,312.046703 119.896123,316.276571 L119.896123,316.276571 L133.096667,329.477115 C135.720718,332.093867 137.837476,332.801886 139.946936,331.086581 L139.946936,331.086581 L145.286277,326.754526 L151.935818,333.407717 L127.764625,357.586209 L126.355886,356.17017 C121.812154,349.225012 115.071373,340.053609 109.425467,334.411352 L109.425467,334.411352 L95.1190993,320.108634 C91.8965169,316.882402 89.1739275,317.586771 87.2578961,319.097699 L87.2578961,319.097699 L85.1411376,320.721764 C80.6557992,319.466307 76.1376146,319.170691 71.8384051,319.813017 L71.8384051,319.813017 L95.2176381,296.430135 C97.8416888,297.846173 100.655518,299.663666 103.980288,302.378956 C101.768641,295.123584 103.173731,286.459472 107.505786,282.131066 C113.418112,276.21874 119.334087,273.777169 122.118719,272.879371 Z M181.347813,254.423427 C196.059285,269.131249 197.570212,290.795178 183.869675,304.495715 C170.774969,317.590421 152.038006,318.597706 137.023619,303.583319 C121.009246,287.565296 122.520174,266.109394 134.808322,253.813946 C149.413956,239.211962 168.65821,241.737474 181.347813,254.423427 Z M143.268057,264.897732 C139.738909,268.430529 138.235281,275.981518 149.421255,287.167491 C160.698468,298.452004 168.260406,300.565113 175.40994,293.415579 C179.136165,289.685704 180.442716,282.328144 168.760399,270.645826 C155.256939,257.146016 148.406671,259.762768 143.268057,264.897732 Z M197.825683,193.829389 C196.650517,199.500842 197.059271,205.318278 198.617643,210.905791 C194.833025,214.274357 190.906072,218.077223 187.497361,221.485934 C188.656104,222.847229 191.048406,225.390989 193.528755,227.9717 L194.274355,228.745877 C196.512207,231.06486 198.72859,233.320987 200.088425,234.679179 L200.088425,234.679179 L210.56638,245.157134 C214.799897,249.390651 217.920291,250.901579 221.947606,246.872438 C223.392842,245.434502 224.250494,243.624309 225.005958,240.784933 C227.900077,241.85791 230.929232,242.540382 234.00948,242.810452 C234.206558,248.5257 232.334322,255.021958 226.688416,260.671514 C216.004259,271.353845 205.624843,269.634892 195.551992,259.56934 C187.898816,251.912513 180.749281,243.744745 173.493909,235.493036 L173.493909,235.493036 L165.231251,243.752044 L160.59628,237.704684 C166.442913,225.212159 165.636355,218.358241 159.793372,208.091962 L159.793372,208.091962 L167.745814,200.12857 C171.176423,204.559165 175.209213,208.591955 178.931788,212.719634 L178.931788,212.719634 Z M252.100467,182.661663 L257.538346,188.099543 L242.228343,203.420495 C238.505768,207.14307 233.166427,212.278034 229.133637,216.106448 C237.69921,224.073489 246.253834,221.752354 251.19537,216.810817 C255.92523,212.077307 258.450742,206.336512 259.056573,199.686971 L268.421405,199.989886 C268.4652,200.366587 268.508436,200.745012 268.550094,201.125285 L268.611269,201.697096 C269.467497,209.913353 269.358475,219.012151 258.151476,230.215738 C243.637082,244.719184 225.005958,240.989309 213.416705,229.405531 C199.019097,215.000624 194.884119,193.741799 209.894856,178.734711 C223.998672,164.62907 240.315961,170.877157 252.100467,182.661663 Z M305.873433,85.7761651 L313.34413,96.6409757 C313.34413,96.6409757 305.289499,103.688322 300.855255,108.126216 C301.956061,109.414245 304.170977,111.772743 306.517088,114.21801 L307.261179,114.991937 C309.624019,117.444572 312.014587,119.88043 313.449968,121.315811 L313.449968,121.315811 L323.927923,131.797415 C328.154141,136.027283 331.285484,137.53821 335.310975,133.50907 C336.858398,131.961647 337.741597,129.961675 338.533557,126.735443 C341.143009,128.658773 344.142967,130.067513 347.380148,130.79378 C347.259712,136.162317 345.25609,142.10019 340.044485,147.311795 C329.365803,157.990477 318.990036,156.275173 308.917185,146.205972 C301.260359,138.545495 294.110824,130.385026 286.855452,122.126019 L286.855452,122.126019 L276.64076,132.343939 C276.80641,134.542336 277.036363,136.736806 277.282594,138.94695 L279.092788,155.873719 L305.888031,161.713053 C307.906251,162.118156 309.822282,161.818891 314.654331,157.990477 L321.004607,164.337103 L301.559625,183.778436 L300.654528,182.873339 C300.150885,181.563138 299.442866,180.457314 298.034127,179.041276 C295.716641,176.72744 293.406455,176.424524 290.475839,175.720155 L281.315384,173.804123 L282.421208,182.767501 C282.621935,184.581344 282.921201,186.095921 283.932136,187.103206 C285.136498,188.311218 286.647426,188.008303 288.567107,186.694453 L293.607182,191.734528 L274.665843,210.675867 L271.143994,207.14672 C271.117535,206.542714 271.091361,205.963856 271.063447,205.390073 L271.042154,204.960373 C270.847013,201.095999 270.549568,197.234222 269.527229,187.201745 L267.917762,170.880807 L243.739271,165.848031 C241.013032,165.340739 240.107935,165.643654 238.191903,167.158231 L235.378074,169.373529 L228.827072,162.822526 L249.074962,142.578285 L249.88152,143.381194 C250.381513,144.888472 251.691713,146.808153 252.604109,147.71325 C255.220861,150.333651 256.830327,151.140209 260.958006,152.041656 L266.406835,153.253318 L265.600277,146.607426 C265.293712,143.881187 265.191523,142.373909 264.089349,141.063708 C262.976226,139.954235 261.771863,140.355689 259.855832,141.669539 L254.921595,136.735302 L272.749811,118.899787 L273.00841,118.549515 C279.722913,109.385147 278.921166,104.873615 273.147616,94.7176451 L273.147616,94.7176451 L281.111007,86.7652023 C284.537966,91.1994465 288.567107,95.2249373 292.293332,99.3599156 L292.293332,99.3599156 L305.873433,85.7761651 Z M217.949488,190.420678 C214.628366,193.745449 213.821808,200.194263 220.976817,208.150355 L234.170062,194.953461 C235.275886,193.843987 234.775893,192.738163 233.772258,191.727229 C229.239475,187.198095 223.294303,185.077687 217.949488,190.420678 Z M361.598926,64.0976381 L378.124241,80.622953 C383.463582,85.9586443 385.478152,85.7579172 389.912396,82.130231 L396.565587,88.7761229 L381.354122,103.991237 C378.730072,102.991251 375.507489,101.166459 373.292192,99.7650194 C375.708216,107.418196 375.606028,112.757537 368.449194,119.914371 C357.274169,131.089396 345.78528,129.684306 337.726999,121.626026 C328.759972,112.651699 330.066523,98.6518963 344.978722,82.9404386 L348.299843,79.4112912 L346.190383,77.2981822 C341.150308,72.2581072 337.62846,72.5610226 331.57745,78.6047332 C325.938844,84.2469896 324.83302,89.389253 326.643213,94.6264055 L320.092211,101.173759 L307.975593,83.6740049 C307.975593,83.6740049 315.36235,73.2653923 323.723546,64.9005465 C336.011695,52.6123983 349.212239,51.7073015 361.598926,64.0976381 Z M356.5625,87.6739486 L354.343553,89.8855963 C346.588188,97.6409617 347.694012,103.188329 351.12827,106.611638 C355.058872,110.53859 359.383628,110.038597 362.507672,106.910904 C366.839728,102.586148 366.135358,97.243157 361.901841,93.0132896 L356.5625,87.6739486 Z" id="Combined-Shape" fill="#FFFFFF"></path>
    </g>
</svg>