<?xml version="1.0" encoding="UTF-8"?>
<svg
  width="500px"
  height="500px"
  viewBox="0 0 500 500"
  version="1.1"
  xmlns="http://www.w3.org/2000/svg"
  xmlns:xlink="http://www.w3.org/1999/xlink"
>
  <title>Lume</title>
  <g id="Lume" stroke="none" stroke-width="1" fill="none" fill-rule="evenodd">
    <path
      d="M250.003186,29.9984071 C371.505756,29.9984071 470,128.492651 470,250.001593 C470,371.504163 371.505756,470.001593 250.003186,470.001593 C128.49743,470.001593 30,371.504163 30,250.001593 C30,128.492651 128.49743,29.9984071 250.003186,29.9984071 Z M165.150822,194.290348 C154.287018,194.290348 145.086236,197.842589 138.609369,204.322641 C128.584736,214.347275 128.166979,226.575264 128.15374,246.299236 L128.15374,248.892902 C128.166979,268.611157 128.584736,280.845117 138.609369,290.863515 C145.086236,297.346753 154.07675,300.895808 164.946926,300.895808 C175.40294,300.895808 182.915213,297.757729 189.194555,291.49113 L189.194555,291.49113 L189.194555,299.643762 C189.194555,306.961697 185.435233,316.783723 171.006444,316.783723 C163.271161,316.783723 156.995004,314.904062 151.779741,309.679241 L151.779741,309.679241 L130.453552,330.995873 C141.948157,342.49685 155.115343,345.631743 172.68221,345.631743 C203.413077,345.631743 223.474477,326.398668 223.474477,299.854029 L223.474477,299.854029 L223.474477,195.548765 L190.239519,195.548765 L190.239519,204.73999 C183.335747,197.842589 176.651799,194.290348 165.150822,194.290348 Z M281.380783,194.290348 C262.35479,194.290348 251.901962,197.842589 240.413728,209.337195 L240.413728,209.337195 L261.727174,230.663384 C267.162262,225.22511 270.931142,223.138368 279.705018,223.138368 C291.616972,223.138368 296.631526,226.89769 296.631526,237.143436 L296.631526,237.143436 L296.631526,240.071248 L273.849395,240.071248 C247.097676,240.071248 235.596698,255.748896 235.596698,272.67859 C235.596698,283.128231 238.938672,292.53928 245.428282,299.016147 C251.694881,305.289117 261.096372,309.051626 272.390269,309.051626 C284.302223,309.051626 290.57838,305.709652 297.472594,298.805879 L297.472594,298.805879 L297.472594,308.009847 L330.917819,308.009847 L330.917819,235.053508 C330.917819,207.667801 313.577149,194.290348 281.380783,194.290348 Z M100.745348,270.378394 L63.1107089,270.378394 L63.1107089,308.009847 L100.745348,308.009847 L100.745348,270.378394 Z M381.7069,159.172544 L347.43335,159.172544 L347.43335,274.771704 C347.43335,290.242271 357.468829,308.009847 382.347259,308.009847 L382.347259,308.009847 L400.525813,308.009847 L400.525813,279.161828 L388.604301,279.161828 C384.010282,279.161828 381.7069,276.651365 381.7069,272.258055 L381.7069,272.258055 L381.7069,159.172544 Z M296.631526,262.853378 L296.631526,265.781189 C296.631526,271.216277 295.8032,274.771704 293.292738,277.071899 C289.536601,280.627326 286.395337,281.24857 279.705018,281.24857 C272.186373,281.24857 268.414307,276.85526 268.414307,271.837521 C268.414307,266.615886 272.59735,262.853378 279.284483,262.853378 L279.284483,262.853378 L296.631526,262.853378 Z M175.817102,225.22511 C187.601303,225.22511 189.051524,234.832813 189.183127,245.535619 L189.189823,246.220182 C189.193209,246.67744 189.194555,247.136352 189.194555,247.596264 L189.194292,247.940904 C189.176564,259.307186 188.228123,269.961046 175.817102,269.961046 C163.647539,269.961046 162.494088,259.733297 162.435834,248.628816 L162.43354,247.940904 L162.43354,247.940904 L162.43354,247.251528 C162.434432,246.677314 162.437691,246.104917 162.444675,245.535619 L162.454931,244.85403 C162.642271,234.428324 164.274836,225.22511 175.817102,225.22511 Z"
      id="Combined-Shape"
      fill="#231F20"
    ></path>
  </g>
</svg>
