<?xml version="1.0" encoding="UTF-8"?>
<svg width="500px" height="500px" viewBox="0 0 500 500" version="1.1" xmlns="http://www.w3.org/2000/svg" xmlns:xlink="http://www.w3.org/1999/xlink">
    <title>Lume</title>
    <g id="Lume" stroke="none" stroke-width="1" fill="none" fill-rule="evenodd">
        <path d="M82.2433011,266.272641 L137.42764,320.855427 L108.644429,320.855427 L65.911729,278.729451 C73.4492451,277.036828 78.7649779,272.412278 82.2433011,266.272641 L82.2433011,266.272641 Z M159.74441,215.664417 L159.74441,266.818865 C159.74441,278.55519 164.830898,282.635066 174.009327,282.635066 C180.30754,282.635066 189.804845,278.55519 189.804845,262.913077 L189.804845,215.664417 L218.705264,215.664417 L218.705264,303.879038 L190.668393,303.879038 L190.668393,291.806602 L190.323663,291.806602 C184.892446,300.817837 173.67494,306.42659 163.474386,306.42659 C138.149677,306.42659 130.843129,291.806602 130.843129,268.699366 L130.843129,215.664417 L159.74441,215.664417 Z M59.3741016,179.974373 C97.630486,179.974373 119.20195,208.021586 119.20195,243.19781 C119.20195,257.710933 115.328912,270.739994 108.34124,281.333539 L108.34124,281.333539 L85.308121,258.660663 C86.8404447,253.808592 87.5919556,248.53078 87.5919556,243.19781 C87.5919556,225.189128 79.7683138,207.16838 59.3741016,207.16838 C38.9919548,207.16838 31.1700367,225.189128 31.1700367,243.19781 C31.1700367,259.884454 38.0198169,276.379773 55.1942533,278.754961 L55.1942533,278.754961 L80.037203,303.213537 C73.8113837,305.281915 66.9029994,306.426418 59.3741016,306.426418 C21.1384009,306.426418 -0.4503,278.382653 -0.4503,243.19781 C-0.4503,208.021586 21.1384009,179.974373 59.3741016,179.974373 Z M263.809705,215.664245 L263.809705,303.878865 L234.914457,303.878865 L234.914457,215.664245 L263.809705,215.664245 Z M336.068509,213.12169 C365.465338,213.12169 367.843974,234.529408 367.843974,247.286133 L367.843974,303.878693 L338.962515,303.878693 L338.962515,261.216662 L338.965668,260.130483 C338.968249,259.647829 338.972106,259.165498 338.976055,258.684284 L338.981898,257.9634 C339.067065,247.045701 338.892897,236.911491 324.507996,236.911491 C313.63522,236.911491 308.869331,246.089921 308.869331,255.77855 L308.869331,303.878693 L279.975807,303.878693 L279.975807,215.664072 L308.00923,215.664072 L308.00923,227.733061 L308.362578,227.733061 C313.63522,218.721825 325.519778,213.12169 336.068509,213.12169 Z M397.928539,291.86331 L397.928539,303.878865 L388.401933,303.878865 L388.401933,291.86331 L397.928539,291.86331 Z M449.288102,236.921833 L471.038826,296.84793 L471.216361,296.84793 L492.798168,236.921833 L499.5497,236.921833 L474.70675,303.878693 L467.284719,303.878693 L444.454991,242.366839 L424.870893,242.366839 L424.870893,303.878693 L418.493393,303.878693 L418.493393,242.366839 L395.148294,242.366839 L395.148294,236.921833 L449.288102,236.921833 Z M263.809705,185.836503 L263.809705,207.93368 L234.914457,207.93368 L234.914457,185.836503 L263.809705,185.836503 Z" id="Combined-Shape" fill="#000000"></path>
    </g>
</svg>