<?xml version="1.0" encoding="UTF-8"?>
<svg width="500px" height="500px" viewBox="0 0 500 500" version="1.1" xmlns="http://www.w3.org/2000/svg" xmlns:xlink="http://www.w3.org/1999/xlink">
    <title>Lume</title>
    <g id="Lume" stroke="none" stroke-width="1" fill="none" fill-rule="evenodd">
        <path d="M339.45309,0.455988924 L347.100973,2.05157839 L333.976337,59.3667442 C350.138995,65.4646493 360.910249,71.3270254 363.609412,72.8489718 L363.784595,72.9480602 C364.108632,73.1319456 364.274292,73.2294643 364.274292,73.2294643 C364.274292,73.2294643 363.957679,74.5455147 363.405033,76.8535456 L363.171577,77.8288954 C359.77325,92.0318437 349.477091,135.284062 345.934965,152.68219 C359.948619,161.930638 367.060768,177.52993 371.668406,212.407326 C372.392094,217.891858 374.537116,223.503833 376.808155,229.160523 L377.314378,230.418268 C377.398919,230.628004 377.483501,230.837792 377.568058,231.047629 L378.074582,232.307204 C383.799907,246.588249 388.803047,261.055754 372.391563,274.388181 C343.460308,297.889124 317.177865,266.431796 317.177865,266.431796 C317.177865,266.431796 315.545786,275.292128 307.120012,303.936442 C300.656266,325.910296 298.61465,364.889787 297.569555,384.654073 L297.492041,386.117624 C297.252297,390.631483 297.065178,393.98083 296.883028,395.661771 C295.383639,409.444878 288.463889,438.520432 286.724,451.888885 C284.403595,469.637744 304.141136,486.087907 289.195339,499.882623 C271.512824,502.806765 232.0875,494.279816 227.406883,480.377289 C229.547901,471.332628 231.411028,456.273212 232.990073,440.992025 L233.194424,438.998046 C234.850123,422.711382 236.183173,406.458872 237.186089,397.242433 C239.136622,379.221561 240.179892,358.04434 236.434735,325.453679 C225.696849,347.182058 184.145179,442.19261 184.075517,469.791995 C170.337193,478.886192 126.481703,479.677352 116.463657,460.392613 C120.314966,449.391008 129.099001,443.837958 134.497799,435.082119 C134.093096,427.261741 140.377596,396.879196 151.188461,364.580949 C152.089753,361.890341 153.641422,358.01964 155.584578,353.336881 L156.48455,351.176068 C164.395441,332.241403 177.533534,302.088295 181.124837,281.719268 C185.788868,255.270963 184.475243,245.828457 184.475243,245.828457 C184.475243,245.828457 184.46154,245.834209 184.434583,245.84516 L184.314403,245.893059 C181.769779,246.891315 149.72702,258.594898 137.979236,219.864468 C131.865574,199.707297 151.072358,183.306893 156.053184,174.390168 C173.020835,143.977769 178.013272,140.945817 199.062779,130.874695 C203.346987,109.825188 215.738514,42.5682722 215.738514,42.5682722 C215.738514,42.5682722 246.636888,39.0835181 290.003086,47.041562 C303.613696,49.5444149 315.993612,53.0540483 326.575588,56.6947124 L326.575588,56.6947124 L339.45309,0.455988924 Z M288.264855,58.441236 C254.764111,52.2944017 222.63836,74.4568409 216.499819,107.955927 C210.364595,141.463305 232.528692,173.582422 266.03773,179.71267 C299.530181,185.862821 331.669201,163.713651 337.804425,130.196321 C343.9496,96.7254315 321.762282,64.5947047 288.264855,58.441236 Z M239.560399,121.158517 C247.09052,121.158517 249.477269,124.464141 249.477269,131.808496 L249.477269,148.887275 L240.663379,148.887275 L240.663379,133.095583 C240.570497,129.514629 240.525714,128.733421 236.805436,128.642197 L234.694017,128.642197 L234.694017,148.887275 L225.878468,148.887275 L225.878468,121.158517 L239.560399,121.158517 Z M277.800143,121.156858 L277.800143,148.887275 L268.939812,148.887275 C260.125922,148.887275 252.826349,141.081823 252.826349,131.808496 C252.826349,126.345012 255.488429,121.156858 264.34876,121.156858 L277.800143,121.156858 Z M296.299195,121.158517 L298.503497,128.411649 L294.55433,128.411649 C292.6718,128.411649 292.029915,128.595755 292.029915,129.468188 C292.029915,129.972407 292.489352,130.478286 292.764683,130.84484 L296.667408,135.757663 C298.135284,137.593752 299.329488,139.660389 299.329488,142.09358 C299.329488,145.628092 296.667408,148.887275 292.39647,148.887275 L283.444914,148.887275 L281.240778,141.403595 L286.106994,141.403595 C286.750538,141.403595 289.137288,141.909473 289.137288,140.76171 C289.137288,140.073384 288.264855,139.109728 287.898301,138.60385 L284.179682,133.783909 C282.710147,131.901379 281.469667,130.018849 281.469667,127.539216 C281.469667,125.611904 282.939036,121.158517 288.908398,121.158517 L296.299195,121.158517 Z M326.459485,121.156858 L326.459485,148.887275 L317.600812,148.887275 C308.785263,148.887275 301.48569,141.081823 301.48569,131.808496 C301.48569,126.345012 304.147771,121.156858 313.008102,121.156858 L326.459485,121.156858 Z M268.986253,128.640538 L265.947649,128.640872 C264.507969,128.648064 261.824345,128.809864 261.824345,132.450381 C261.824345,136.583654 264.670532,140.852934 268.986253,141.403595 L268.986253,128.640538 Z M317.645595,128.640538 L314.605342,128.640872 C313.165797,128.648064 310.483687,128.809864 310.483687,132.450381 C310.483687,136.583654 313.329874,140.852934 317.645595,141.403595 L317.645595,128.640538 Z M243.462461,88.8552942 L243.462461,96.7984106 C241.120494,96.8896345 238.917851,97.6708431 237.678864,99.7822624 L237.678864,117.227595 L228.863315,117.227595 L228.863315,89.4988376 L237.310651,89.4988376 L237.310651,91.1060374 C239.055516,89.4523963 241.075711,88.9017355 243.462461,88.8552942 Z M258.198111,88.8552942 L260.0342,88.8552942 C269.987965,88.8552942 270.449655,94.1625705 270.458869,96.0949436 L270.458845,96.2350761 C270.458545,96.3017569 270.457922,96.3632539 270.457472,96.4190915 L270.456949,96.5230802 L270.456949,96.5230802 C270.456949,102.67489 265.222354,106.531175 260.402413,109.239696 C262.562908,109.715817 263.991729,109.743824 265.376127,109.745471 L269.125079,109.745574 L266.920777,117.227595 L261.594959,117.227595 C252.781068,117.227595 245.481495,109.423802 245.481495,100.148817 C245.572719,92.3450242 249.107232,88.717629 258.198111,88.8552942 Z M297.355734,79.7179737 L297.355734,117.227595 L288.218414,117.227595 C279.405353,117.227595 272.10578,109.422144 272.10578,100.148817 C272.10578,94.6853327 274.769519,89.497179 283.627362,89.497179 L288.540185,89.497179 L288.540185,79.7179737 L297.355734,79.7179737 Z M313.283432,88.8552942 L315.119521,88.8552942 C325.073286,88.8552942 325.534977,94.1625705 325.54419,96.0949436 L325.543777,96.3000113 C325.543163,96.3842408 325.54227,96.4589727 325.54227,96.5230802 C325.54227,102.67489 320.307675,106.531175 315.487734,109.239696 C317.648229,109.715817 319.07705,109.743824 320.461449,109.745471 L324.210401,109.745574 L322.006099,117.227595 L316.68028,117.227595 C307.864731,117.227595 300.566817,109.423802 300.566817,100.148817 C300.658041,92.3450242 304.192553,88.717629 313.283432,88.8552942 Z M288.540185,96.9808585 L285.418668,96.9808585 C284.042016,96.9808585 281.103777,96.9808585 281.103777,100.790701 C281.103777,104.923975 283.949134,109.193255 288.264855,109.743916 L288.540185,109.743916 L288.540185,96.9808585 Z M258.748772,96.3389737 C255.993809,96.3389737 254.479492,97.7172844 254.479492,100.470588 C254.479492,101.573569 254.708381,102.721332 255.076594,103.776212 C256.959124,102.812556 261.457293,100.148817 261.457293,97.762067 C261.457293,96.3389737 259.805311,96.3389737 258.748772,96.3389737 Z M313.834093,96.3389737 C311.079131,96.3389737 309.566472,97.7172844 309.566472,100.470588 C309.566472,101.573569 309.793702,102.721332 310.161915,103.776212 C312.044446,102.812556 316.544273,100.148817 316.544273,97.762067 C316.544273,96.3389737 314.890632,96.3389737 313.834093,96.3389737 Z" id="Combined-Shape" fill="#000000"></path>
    </g>
</svg>