<?xml version="1.0" encoding="UTF-8"?>
<svg width="500px" height="500px" viewBox="0 0 500 500" version="1.1" xmlns="http://www.w3.org/2000/svg" xmlns:xlink="http://www.w3.org/1999/xlink">
    <title>Lume</title>
    <g id="Lume" stroke="none" stroke-width="1" fill="none" fill-rule="evenodd">
        <path d="M477.368311,166.816028 C478.483539,166.842271 478.560249,168.520418 478.608452,170.301915 L478.620493,170.748546 C478.658343,172.089522 478.727501,173.416043 479.254067,174.074814 C479.809511,174.771644 478.679343,178.081356 478.481036,178.947114 C478.153278,180.394941 477.154397,181.786764 476.586099,183.161144 C477.629049,183.64865 481.394133,183.167571 481.713628,184.560312 C481.875212,185.269077 480.780849,186.903276 480.62202,187.683652 C480.340167,189.041506 479.643337,190.341521 479.039234,191.579105 C478.010974,193.698055 477.37382,196.27146 476.077478,198.200365 C474.672801,200.290855 472.707172,201.921382 471.524673,204.177127 C473.455415,203.28199 481.766877,205.275162 482.540827,207.875191 C482.980591,209.35056 480.925908,211.454821 480.453091,212.780542 C479.650681,215.010581 477.280175,216.570415 475.924157,218.47545 C474.554368,220.398848 473.203858,221.29123 471.318103,222.678463 C469.415822,224.077631 468.346247,225.949616 466.114372,226.936562 C463.865053,227.929934 461.780991,229.222604 459.769457,230.630953 C457.566042,232.171507 455.283672,233.317283 453.049961,234.771536 C448.67725,237.631236 443.767709,239.417963 438.826635,241.146523 L436.973241,241.793989 C432.958628,243.199513 428.964894,244.650379 425.263069,246.690906 C418.402319,250.471598 413.2964,256.275516 407.980668,262.946859 C410.751448,262.912929 413.316214,259.638177 415.478073,258.252772 C419.166038,255.878593 424.277959,255.083528 428.546157,254.326104 C436.449988,252.92051 445.054321,251.899594 453.044452,252.831455 C460.004488,253.644882 467.530066,253.428213 474.290876,255.411286 C475.383402,255.735372 478.841845,256.653461 479.128289,258.024168 C479.594678,260.266142 478.636193,260.44976 480.99201,261.92513 C484.789227,264.304817 488.38722,265.786614 490.578699,269.814271 C491.724474,271.916696 495.199442,273.697789 497.140283,274.801333 C497.561686,275.040954 501.085313,277.33985 498.90026,277.558355 C496.937386,277.751154 495.983491,280.473289 494.065602,281.059948 C493.542291,281.28947 493.091509,281.617228 492.716011,282.043221 C492.013672,282.578468 490.829337,282.300286 490.014074,282.53899 C488.470766,282.993444 487.925421,285.223483 486.248989,285.991006 C484.73506,286.680491 483.014561,286.080978 481.411577,286.210429 C478.817056,286.420671 479.717702,288.354168 479.815019,290.239923 C479.9531,292.961874 477.638634,293.106712 475.252013,292.873855 L474.893776,292.836369 C474.59529,292.803228 474.297537,292.765904 474.005165,292.728692 L473.657199,292.684367 C473.599735,292.67708 473.54256,292.669867 473.485712,292.662761 C472.039721,292.480061 470.676358,291.449965 469.131214,291.188309 C467.240868,290.869732 465.400099,290.151786 463.500572,289.859834 C460.121085,289.339277 456.806783,288.109956 453.402507,287.421389 C451.184403,286.968771 447.464306,286.0415 445.592321,284.800244 C447.113595,286.825549 446.272626,290.521776 446.805117,292.911563 C447.624971,296.604118 447.333937,299.973506 446.651796,303.611894 C446.409421,304.899974 445.965984,307.135521 444.404314,307.476132 C443.645573,307.641668 442.967891,307.234749 442.29524,306.751821 L441.928381,306.483851 C441.316259,306.034617 440.696869,305.597163 440.013092,305.544472 C438.422962,305.426957 437.145899,303.538447 435.590656,303.096846 C433.442327,302.486317 431.995418,300.640039 430.336431,299.232608 C427.813521,297.092542 424.484529,295.474868 422.923778,292.504849 C422.02292,290.79339 420.59735,289.562444 419.111379,288.393192 L418.36551,287.811769 C416.872303,286.651449 415.396081,285.48302 414.401154,283.887663 C411.117159,278.621171 404.898901,270.649821 407.04272,264.129337 L406.725009,264.532136 L406.725009,264.532136 C405.996046,265.959765 404.505987,267.070653 403.660427,268.485429 C403.572768,268.632066 403.391083,269.333081 403.209064,270.075908 L403.110311,270.482152 C402.914992,271.290611 402.739547,272.037921 402.705614,272.058633 C400.656439,273.267756 393.906646,282.257687 390.616214,288.289534 C379.648113,303.844593 373.089526,309.969945 366.892827,315.209819 L366.330375,315.68397 L366.330375,315.68397 L365.769242,316.154668 C365.675792,316.232909 365.582368,316.311066 365.488958,316.389169 L364.928534,316.857364 C364.741702,317.013368 364.554807,317.169392 364.367739,317.325673 L363.805896,317.795523 C361.649296,319.60139 359.454719,321.472661 357.050868,323.770933 C353.83021,326.849286 343.209753,332.25316 341.767377,332.306409 L341.769311,332.303796 L341.767435,332.305675 L341.767435,320.557804 L341.421315,320.557804 C335.713554,329.553243 325.334554,333.185204 314.782953,333.185204 C299.042311,333.185204 284.856913,324.190683 284.856913,307.24 C284.856913,278.1788 320.145513,277.660079 341.767435,277.660079 C341.767435,268.492957 334.157392,262.610759 325.161953,262.610759 C316.686152,262.610759 309.59483,266.414403 304.058751,272.642721 L290.220391,258.458241 C299.733633,249.46372 313.572911,244.966 327.238671,244.966 C357.508994,244.966 365.638675,260.36144 365.638675,288.384281 L365.637759,309.49454 C371.658516,303.871263 380.869801,294.94021 386.640887,287.05654 C395.193865,275.697019 399.115368,267.462369 404.71698,261.986073 L404.015728,262.511697 L404.015728,262.511697 C397.352235,263.181902 389.936828,260.991341 383.83337,258.230647 C380.58976,256.765376 374.447743,255.617764 372.925551,251.851762 C372.494967,250.78586 371.182099,250.810649 370.033569,250.262549 C368.016527,249.3059 366.156478,248.089432 364.830757,246.298239 C363.116684,243.984654 360.894908,242.285271 358.783302,240.392079 C356.613857,238.44573 355.914273,235.526205 354.221316,233.213538 C352.970879,231.510483 355.004447,230.7044 356.70383,230.53639 C358.523483,230.348182 360.285297,229.035314 362.108622,228.838843 C363.805251,228.658897 365.657037,228.010726 367.338977,228.282481 C368.958486,228.547808 371.275744,229.143648 372.791509,228.343993 C371.330829,226.595951 368.514131,225.178421 367.529021,223.187085 C366.307044,220.692636 364.009985,217.628054 361.814833,215.859814 C360.464324,214.769124 359.974064,212.804413 359.099125,211.369439 C358.219596,209.928957 356.243867,208.340662 356.225506,206.5256 C356.217243,204.770213 355.960178,203.638209 357.384134,202.324423 C358.702511,201.106118 360.171453,201.541293 361.52839,200.675534 C360.772802,199.416834 360.311003,197.823031 359.893272,196.416518 C359.548071,195.251463 359.739033,194.081817 359.21205,192.939714 C358.791565,192.04274 360.494621,191.961948 360.846249,191.489132 C357.848003,191.849691 360.902598,189.45934 361.80193,188.586903 L361.902528,188.486063 C361.976015,188.409132 362.022405,188.350602 362.032421,188.315298 C362.471267,186.71874 362.069144,187.014365 361.409038,185.582146 C360.992225,184.666811 361.881854,182.884799 361.962646,181.92815 C362.201349,179.053612 361.171253,176.738191 365.171368,178.284254 C367.98623,179.374026 371.766004,181.317621 374.830586,181.072491 C376.882516,180.910907 378.558947,183.727605 380.365746,184.512572 C380.968931,184.777899 381.808065,186.20461 382.323113,186.270713 C383.783793,186.451576 385.162763,184.25367 386.83185,184.295903 C387.57183,184.321609 391.733529,188.705486 391.936426,189.39038 C392.758116,192.170355 394.718237,194.417837 395.459135,197.329099 C395.934705,199.199247 396.310204,203.957704 397.673567,205.323821 C399.921049,207.58232 401.064989,210.320981 402.92412,212.770443 C404.43254,214.744335 404.563827,217.394859 405.636155,219.626734 C407.140904,222.763846 407.877211,226.886067 408.456526,230.294014 C409.341564,235.491318 409.404912,240.52153 409.106533,245.829096 C408.927506,248.987323 408.489577,252.098728 407.475088,255.099962 C407.475088,255.099962 404.996143,261.117339 405.6415,261.245092 C406.462805,260.605052 407.201018,259.560339 407.895929,258.522773 L408.306027,257.90734 C408.779183,257.197929 409.235066,256.531906 409.686766,256.048991 C411.386149,254.22842 412.282204,253.55087 413.654748,251.453954 C416.361275,247.32347 417.708112,242.908378 418.323232,238.108791 C418.657416,235.495909 418.909891,232.878436 419.146758,230.256373 C419.282635,228.74887 418.71801,225.452929 419.330376,224.115273 C420.137376,222.365395 420.397196,219.19156 420.104325,217.253473 C419.789421,215.194199 420.373325,213.262539 420.164001,211.132572 C419.696694,206.610064 420.095144,200.710422 421.100452,196.289822 C421.63478,193.957875 421.450244,192.030805 422.883382,189.956841 C423.616017,188.89553 423.770256,187.586335 424.240318,186.158706 C424.853601,184.309674 425.773527,182.277942 427.013866,180.714436 C427.61705,179.952422 428.452512,179.500722 429.163113,178.850715 C430.027035,178.065748 430.550346,176.241505 431.673169,175.79715 C432.442528,175.490508 435.192205,179.044432 435.712762,179.49705 C437.524152,181.077999 438.223736,183.290595 439.919447,184.821968 C441.490298,182.705772 443.083183,180.483996 444.870703,178.548663 C445.965984,177.364328 449.799007,175.456538 449.888061,173.55793 C449.945901,172.252407 455.059659,169.088671 456.315605,168.706746 C458.435473,168.097134 458.922979,172.847329 461.38713,170.982689 C463.709896,169.225466 466.117127,166.747543 469.028388,167.720718 C471.529263,168.551589 474.712279,166.761314 477.368311,166.816028 Z M137.47695,244.965357 C161.693393,244.965357 176.915314,262.263997 176.915314,289.076796 L176.915314,297.205559 L116.718032,297.205559 C118.79475,307.06492 126.232192,313.464921 136.26599,313.464921 C144.740873,313.464921 150.450471,309.141638 154.773753,303.260358 L172.937233,316.578162 C164.634033,327.131599 150.969191,333.184562 137.47695,333.184562 C111.528991,333.184562 90.7723685,315.887758 90.7723685,289.076796 C90.7723685,262.263997 111.528991,244.965357 137.47695,244.965357 Z M35.4138769,247.041341 L50.2915145,269.875141 L64.6476775,247.041341 L93.5353584,247.041341 L66.204757,286.134503 L98.5527166,331.108945 L67.9344373,331.108945 L49.5983571,303.087023 L29.8787163,331.108945 L-0.39068911,331.108945 L32.8211926,286.134503 L4.7992699,247.041341 L35.4138769,247.041341 Z M213.760993,247.041249 L213.760993,331.108853 L187.813952,331.108853 L187.813952,247.041249 L213.760993,247.041249 Z M277.763755,244.965541 C280.704395,244.965541 283.990237,245.139978 286.411238,245.830381 L286.411238,269.528103 C282.779277,268.492498 279.146397,267.799341 275.340917,267.799341 C255.622194,267.799341 253.200275,279.2167 253.200275,295.993864 L253.200275,331.108945 L227.25507,331.108945 L227.25507,247.041341 L253.200275,247.041341 L253.200275,260.5345 L253.546394,260.5345 C259.081555,250.329937 266.346396,244.965541 277.763755,244.965541 Z M341.767435,294.265561 L335.367434,294.265561 C327.411272,294.265561 309.765595,294.956882 309.765595,306.373323 C309.765595,312.600723 316.340032,315.542281 322.046876,315.542281 C332.253275,315.542281 341.767435,310.178804 341.767435,299.800722 L341.767435,294.265561 Z M135.054112,263.646639 C123.63859,263.646639 117.41119,271.432037 116.718032,279.562636 L150.969191,279.562636 C151.139956,270.914234 144.394753,263.646639 135.054112,263.646639 Z M200.787473,205.5258 C209.091591,205.5258 215.836793,212.273757 215.836793,220.576957 C215.836793,228.879239 209.091591,235.625359 200.787473,235.625359 C192.484273,235.625359 185.737234,228.879239 185.737234,220.576957 C185.737234,212.273757 192.484273,205.5258 200.787473,205.5258 Z" id="Combined-Shape" fill="#000000"></path>
    </g>
</svg>